<?xml version="1.0" encoding="UTF-8" standalone="no"?>
<!-- Created with Inkscape (http://www.inkscape.org/) -->

<svg
   xmlns:dc="http://purl.org/dc/elements/1.1/"
   xmlns:cc="http://creativecommons.org/ns#"
   xmlns:rdf="http://www.w3.org/1999/02/22-rdf-syntax-ns#"
   xmlns:svg="http://www.w3.org/2000/svg"
   xmlns="http://www.w3.org/2000/svg"
   xmlns:sodipodi="http://sodipodi.sourceforge.net/DTD/sodipodi-0.dtd"
   xmlns:inkscape="http://www.inkscape.org/namespaces/inkscape"
   width="164.74179"
   height="59.482761"
   id="svg2"
   version="1.1"
   inkscape:version="0.48.2 r9819"
   sodipodi:docname="awning.svg">
  <defs
     id="defs4" />
  <sodipodi:namedview
     id="base"
     pagecolor="#4b9cff"
     bordercolor="#666666"
     borderopacity="1.0"
     inkscape:pageopacity="1"
     inkscape:pageshadow="2"
     inkscape:zoom="1.16"
     inkscape:cx="80.172417"
     inkscape:cy="-9.4827519"
     inkscape:document-units="px"
     inkscape:current-layer="layer1"
     showgrid="false"
     inkscape:showpageshadow="false"
     inkscape:window-width="1280"
     inkscape:window-height="682"
     inkscape:window-x="6"
     inkscape:window-y="0"
     inkscape:window-maximized="1"
     fit-margin-top="0"
     fit-margin-left="0"
     fit-margin-right="0"
     fit-margin-bottom="0" />
  <metadata
     id="metadata7">
    <rdf:RDF>
      <cc:Work
         rdf:about="">
        <dc:format>image/svg+xml</dc:format>
        <dc:type
           rdf:resource="http://purl.org/dc/dcmitype/StillImage" />
        <dc:title></dc:title>
      </cc:Work>
    </rdf:RDF>
  </metadata>
  <g
     inkscape:label="Layer 1"
     inkscape:groupmode="layer"
     id="layer1"
     transform="translate(-119.82758,-783.39667)">
    <rect
       style="fill:#333333;fill-opacity:1"
       id="rect4152"
       width="164.493"
       height="36.206898"
       x="119.82758"
       y="783.39667" />
    <rect
       y="786.84491"
       x="123.03721"
       height="9.4827604"
       width="158.87616"
       id="rect4154"
       style="fill:#666666;fill-opacity:1" />
    <path
       sodipodi:type="arc"
       style="fill:#333333;fill-opacity:1"
       id="path4160"
       sodipodi:cx="150"
       sodipodi:cy="218.96552"
       sodipodi:rx="18.965517"
       sodipodi:ry="18.965517"
       d="m 168.96552,218.96552 c 0,10.47436 -8.49115,18.96551 -18.96552,18.96551 -10.47437,0 -18.96552,-8.49115 -18.96552,-18.96551 C 131.03448,208.49115 139.52563,200 150,200 c 10.47437,0 18.96552,8.49115 18.96552,18.96552 z"
       transform="matrix(1.1136364,0,0,1.1136364,-26.097179,577.91077)" />
    <path
       transform="matrix(1.1136364,0,0,1.1136364,96.40323,577.91077)"
       d="m 168.96552,218.96552 c 0,10.47436 -8.49115,18.96551 -18.96552,18.96551 -10.47437,0 -18.96552,-8.49115 -18.96552,-18.96551 C 131.03448,208.49115 139.52563,200 150,200 c 10.47437,0 18.96552,8.49115 18.96552,18.96552 z"
       sodipodi:ry="18.965517"
       sodipodi:rx="18.965517"
       sodipodi:cy="218.96552"
       sodipodi:cx="150"
       id="path4170"
       style="fill:#333333;fill-opacity:1"
       sodipodi:type="arc" />
    <path
       transform="matrix(1.1136364,0,0,1.1136364,14.90323,577.91077)"
       d="m 168.96552,218.96552 c 0,10.47436 -8.49115,18.96551 -18.96552,18.96551 -10.47437,0 -18.96552,-8.49115 -18.96552,-18.96551 C 131.03448,208.49115 139.52563,200 150,200 c 10.47437,0 18.96552,8.49115 18.96552,18.96552 z"
       sodipodi:ry="18.965517"
       sodipodi:rx="18.965517"
       sodipodi:cy="218.96552"
       sodipodi:cx="150"
       id="path4172"
       style="fill:#333333;fill-opacity:1"
       sodipodi:type="arc" />
    <path
       sodipodi:type="arc"
       style="fill:#333333;fill-opacity:1"
       id="path4174"
       sodipodi:cx="150"
       sodipodi:cy="218.96552"
       sodipodi:rx="18.965517"
       sodipodi:ry="18.965517"
       d="m 168.96552,218.96552 c 0,10.47436 -8.49115,18.96551 -18.96552,18.96551 -10.47437,0 -18.96552,-8.49115 -18.96552,-18.96551 C 131.03448,208.49115 139.52563,200 150,200 c 10.47437,0 18.96552,8.49115 18.96552,18.96552 z"
       transform="matrix(1.1136364,0,0,1.1136364,55.90323,577.91077)" />
    <path
       transform="matrix(0.88636367,0,0,0.88636367,7.1316615,628.53773)"
       style="fill:#666666;fill-opacity:1"
       d="m 138.32892,221.397 c 0,10.47436 22.14545,16.53403 11.67108,16.53403 -10.47437,0 -18.96552,-8.49115 -18.96552,-18.96551 0,-10.47437 2.98893,-9.22936 6.32184,-8.26702 3.44033,0.99336 0.9726,0.22413 0.9726,10.6985 z"
       id="path4176"
       inkscape:connector-curvature="0"
       sodipodi:nodetypes="sssas" />
    <path
       transform="matrix(0.88636367,0,0,0.88636367,49.373041,628.53773)"
       style="fill:#666666;fill-opacity:1"
       d="m 142.21928,224.31477 c 2.31931,4.68484 18.25509,13.61626 7.78072,13.61626 -10.47437,0 -18.96552,-8.49115 -18.96552,-18.96551 0,-10.47437 2.75102,-7.72046 5.83555,-7.29443 4.53319,0.62612 3.3189,8.54251 5.34925,12.64368 z"
       id="path4178"
       inkscape:connector-curvature="0"
       sodipodi:nodetypes="assaa" />
    <path
       transform="matrix(0.88636367,0,0,0.88636367,90.752351,628.53773)"
       style="fill:#666666;fill-opacity:1"
       d="m 144.65076,224.80106 c 2.07534,4.24588 15.82361,13.12997 5.34924,13.12997 -10.47437,0 -18.96552,-8.49115 -18.96552,-18.96551 0,-10.47437 0.67954,-9.99473 4.37666,-10.2122 6.16188,-0.36247 6.52902,10.50223 9.23962,16.04774 z"
       id="path4180"
       inkscape:connector-curvature="0"
       sodipodi:nodetypes="assaa" />
    <path
       transform="matrix(0.88636367,0,0,0.88636367,130.40752,627.67566)"
       style="fill:#666666;fill-opacity:1"
       d="m 142.70557,224.31477 c 2.36733,4.57254 17.7688,13.61626 7.29443,13.61626 -10.47437,0 -18.96552,-8.49115 -18.96552,-18.96551 0,-10.47437 -0.47927,-10.85742 3.40407,-11.1848 6.1401,-0.51762 5.43402,11.06205 8.26702,16.53405 z"
       id="path4182"
       inkscape:connector-curvature="0"
       sodipodi:nodetypes="assaa" />
  </g>
</svg>
