<?xml version="1.0" encoding="UTF-8" standalone="no"?>
<!-- Created with Inkscape (http://www.inkscape.org/) -->

<svg
   xmlns:dc="http://purl.org/dc/elements/1.1/"
   xmlns:cc="http://creativecommons.org/ns#"
   xmlns:rdf="http://www.w3.org/1999/02/22-rdf-syntax-ns#"
   xmlns:svg="http://www.w3.org/2000/svg"
   xmlns="http://www.w3.org/2000/svg"
   xmlns:sodipodi="http://sodipodi.sourceforge.net/DTD/sodipodi-0.dtd"
   xmlns:inkscape="http://www.inkscape.org/namespaces/inkscape"
   width="138.34933"
   height="223.8542"
   id="svg3298"
   version="1.1"
   inkscape:version="0.48.2 r9819"
   sodipodi:docname="door2.svg">
  <defs
     id="defs3300" />
  <sodipodi:namedview
     id="base"
     pagecolor="#727272"
     bordercolor="#666666"
     borderopacity="1.0"
     inkscape:pageopacity="1"
     inkscape:pageshadow="2"
     inkscape:zoom="2.0727777"
     inkscape:cx="69.174667"
     inkscape:cy="111.9271"
     inkscape:document-units="px"
     inkscape:current-layer="layer1"
     showgrid="false"
     inkscape:showpageshadow="false"
     fit-margin-top="0"
     fit-margin-left="0"
     fit-margin-right="0"
     fit-margin-bottom="0"
     inkscape:window-width="1280"
     inkscape:window-height="682"
     inkscape:window-x="0"
     inkscape:window-y="0"
     inkscape:window-maximized="0" />
  <metadata
     id="metadata3303">
    <rdf:RDF>
      <cc:Work
         rdf:about="">
        <dc:format>image/svg+xml</dc:format>
        <dc:type
           rdf:resource="http://purl.org/dc/dcmitype/StillImage" />
        <dc:title></dc:title>
      </cc:Work>
    </rdf:RDF>
  </metadata>
  <g
     inkscape:label="Layer 1"
     inkscape:groupmode="layer"
     id="layer1"
     transform="translate(-140.61736,-115.66884)">
    <path
       style="fill:#ffffff;fill-opacity:1"
       d="m 140.61736,125.66905 c 0,0 46.72264,-10.06123 70.437,-9.99993 22.88146,0.0591 67.91233,9.99993 67.91233,9.99993 l 0,30 0,183.854 -138.34933,0 0,-183.854 z"
       id="rect3306"
       inkscape:connector-curvature="0"
       sodipodi:nodetypes="cscccccc" />
    <path
       style="fill:#666666;fill-opacity:1"
       d="m 147.37157,133.38805 c 0,0 42.19519,-10.06774 63.68279,-9.99984 20.65665,0.0653 61.15813,9.99984 61.15813,9.99984 l 0,22.281 0,183.85398 -124.84092,0 0,-183.85398 z"
       id="rect3308"
       inkscape:connector-curvature="0"
       sodipodi:nodetypes="cscccccc" />
    <path
       style="fill:#cccccc;fill-opacity:1"
       d="m 151.23112,137.73005 c 0,0 39.60574,-10.1015 59.82324,-9.99985 19.07121,0.0959 56.3337,9.99985 56.3337,9.99985 l 0,17.939 0,183.85398 -116.15694,0 0,-183.85398 z"
       id="rect3310"
       inkscape:connector-curvature="0"
       sodipodi:nodetypes="cscccccc" />
    <path
       style="fill:#ffffff;fill-opacity:1"
       d="m 157.5029,141.59005 c 0,0 35.39273,-10.13118 53.55126,-10.0003 16.85896,0.12151 49.5797,10.0003 49.5797,10.0003 l 0,14.079 0,183.85399 -103.13096,0 0,-183.85399 z"
       id="rect3312"
       inkscape:connector-curvature="0"
       sodipodi:nodetypes="cscccccc" />
  </g>
</svg>
