<?xml version="1.0" encoding="UTF-8" standalone="no"?>
<!-- Created with Inkscape (http://www.inkscape.org/) -->

<svg
   xmlns:dc="http://purl.org/dc/elements/1.1/"
   xmlns:cc="http://creativecommons.org/ns#"
   xmlns:rdf="http://www.w3.org/1999/02/22-rdf-syntax-ns#"
   xmlns:svg="http://www.w3.org/2000/svg"
   xmlns="http://www.w3.org/2000/svg"
   xmlns:sodipodi="http://sodipodi.sourceforge.net/DTD/sodipodi-0.dtd"
   xmlns:inkscape="http://www.inkscape.org/namespaces/inkscape"
   width="115.08621"
   height="132.75862"
   id="svg2"
   version="1.1"
   inkscape:version="0.48.2 r9819"
   sodipodi:docname="New document 1">
  <defs
     id="defs4" />
  <sodipodi:namedview
     id="base"
     pagecolor="#a9a9a9"
     bordercolor="#666666"
     borderopacity="1.0"
     inkscape:pageopacity="1"
     inkscape:pageshadow="2"
     inkscape:zoom="1"
     inkscape:cx="53.879308"
     inkscape:cy="74.568962"
     inkscape:document-units="px"
     inkscape:current-layer="layer1"
     showgrid="false"
     inkscape:showpageshadow="false"
     fit-margin-top="0"
     fit-margin-left="0"
     fit-margin-right="0"
     fit-margin-bottom="0"
     inkscape:window-width="1280"
     inkscape:window-height="682"
     inkscape:window-x="0"
     inkscape:window-y="2"
     inkscape:window-maximized="0" />
  <metadata
     id="metadata7">
    <rdf:RDF>
      <cc:Work
         rdf:about="">
        <dc:format>image/svg+xml</dc:format>
        <dc:type
           rdf:resource="http://purl.org/dc/dcmitype/StillImage" />
        <dc:title></dc:title>
      </cc:Work>
    </rdf:RDF>
  </metadata>
  <g
     inkscape:label="Layer 1"
     inkscape:groupmode="layer"
     id="layer1"
     transform="translate(-46.120692,-894.17252)">
    <path
       transform="matrix(0.96862745,0,0,0.96862745,8.3975659,869.11167)"
       d="m 157.75863,107.97414 c 0,30.35185 -24.60505,54.95689 -54.9569,54.95689 -30.351859,0 -54.9569,-24.60504 -54.9569,-54.95689 0,-30.35186 24.605041,-54.956901 54.9569,-54.956901 30.35185,0 54.9569,24.605041 54.9569,54.956901 z"
       sodipodi:ry="54.956898"
       sodipodi:rx="54.956898"
       sodipodi:cy="107.97414"
       sodipodi:cx="102.80173"
       id="path2993"
       style="fill:#c8beb7;fill-opacity:1"
       sodipodi:type="arc" />
    <path
       sodipodi:type="arc"
       style="fill:#ffe680;fill-opacity:1"
       id="path2985"
       sodipodi:cx="102.80173"
       sodipodi:cy="107.97414"
       sodipodi:rx="54.956898"
       sodipodi:ry="54.956898"
       d="m 157.75863,107.97414 c 0,30.35185 -24.60505,54.95689 -54.9569,54.95689 -30.351859,0 -54.9569,-24.60504 -54.9569,-54.95689 0,-30.35186 24.605041,-54.956901 54.9569,-54.956901 30.35185,0 54.9569,24.605041 54.9569,54.956901 z"
       transform="translate(-1.7241379,841.15528)" />
    <path
       transform="matrix(0.92156863,0,0,0.92156863,6.3387425,850.05487)"
       d="m 157.75863,107.97414 c 0,30.35185 -24.60505,54.95689 -54.9569,54.95689 -30.351859,0 -54.9569,-24.60504 -54.9569,-54.95689 0,-30.35186 24.605041,-54.956901 54.9569,-54.956901 30.35185,0 54.9569,24.605041 54.9569,54.956901 z"
       sodipodi:ry="54.956898"
       sodipodi:rx="54.956898"
       sodipodi:cy="107.97414"
       sodipodi:cx="102.80173"
       id="path2987"
       style="fill:#d4aa00;fill-opacity:1"
       sodipodi:type="arc" />
    <path
       sodipodi:type="arc"
       style="fill:#ffe680;fill-opacity:1"
       id="path2989"
       sodipodi:cx="102.80173"
       sodipodi:cy="107.97414"
       sodipodi:rx="54.956898"
       sodipodi:ry="54.956898"
       d="m 157.75863,107.97414 c 0,30.35185 -24.60505,54.95689 -54.9569,54.95689 -30.351859,0 -54.9569,-24.60504 -54.9569,-54.95689 0,-30.35186 24.605041,-54.956901 54.9569,-54.956901 30.35185,0 54.9569,24.605041 54.9569,54.956901 z"
       transform="matrix(0.82745098,0,0,0.82745098,15.583164,860.21715)" />
    <path
       transform="matrix(0.35294119,0,0,0.35294119,62.423935,886.23642)"
       d="m 157.75863,107.97414 c 0,30.35185 -24.60505,54.95689 -54.9569,54.95689 -30.351859,0 -54.9569,-24.60504 -54.9569,-54.95689 0,-30.35186 24.605041,-54.956901 54.9569,-54.956901 30.35185,0 54.9569,24.605041 54.9569,54.956901 z"
       sodipodi:ry="54.956898"
       sodipodi:rx="54.956898"
       sodipodi:cy="107.97414"
       sodipodi:cx="102.80173"
       id="path2991"
       style="fill:#fff6d5;fill-opacity:1"
       sodipodi:type="arc" />
  </g>
</svg>
