<?xml version="1.0" encoding="UTF-8" standalone="no"?>
<!-- Created with Inkscape (http://www.inkscape.org/) -->

<svg
   xmlns:dc="http://purl.org/dc/elements/1.1/"
   xmlns:cc="http://creativecommons.org/ns#"
   xmlns:rdf="http://www.w3.org/1999/02/22-rdf-syntax-ns#"
   xmlns:svg="http://www.w3.org/2000/svg"
   xmlns="http://www.w3.org/2000/svg"
   xmlns:xlink="http://www.w3.org/1999/xlink"
   xmlns:sodipodi="http://sodipodi.sourceforge.net/DTD/sodipodi-0.dtd"
   xmlns:inkscape="http://www.inkscape.org/namespaces/inkscape"
   width="392.17111"
   height="822.68036"
   id="svg2993"
   version="1.1"
   inkscape:version="0.48.2 r9819"
   sodipodi:docname="New document 3">
  <defs
     id="defs2995">
    <clipPath
       id="clipPath3103"
       clipPathUnits="userSpaceOnUse">
      <rect
         style="fill:#c83737;fill-opacity:1"
         id="rect3105"
         width="87.205307"
         height="93.67234"
         x="96.974648"
         y="321.17276" />
    </clipPath>
    <linearGradient
       y2="823.05176"
       x2="106.03448"
       y1="868.04443"
       x1="105.17242"
       gradientTransform="matrix(0.90384616,0,0,0.90384616,-28.249335,2.4817664)"
       gradientUnits="userSpaceOnUse"
       id="linearGradient3405"
       xlink:href="#linearGradient3274"
       inkscape:collect="always" />
    <linearGradient
       y2="823.91388"
       x2="195.68967"
       y1="870.81427"
       x1="195.68967"
       gradientTransform="matrix(0.90384075,0,0,0.90384242,189.77214,-0.80259717)"
       gradientUnits="userSpaceOnUse"
       id="linearGradient3403"
       xlink:href="#linearGradient3282"
       inkscape:collect="always" />
    <linearGradient
       y2="823.91388"
       x2="195.68967"
       y1="870.81427"
       x1="195.68967"
       gradientTransform="matrix(0.90384075,0,0,0.90384242,118.22042,-30.112942)"
       gradientUnits="userSpaceOnUse"
       id="linearGradient3399"
       xlink:href="#linearGradient3282"
       inkscape:collect="always" />
    <linearGradient
       y2="823.05176"
       x2="106.03448"
       y1="868.04443"
       x1="105.17242"
       gradientTransform="matrix(0.90384616,0,0,0.90384616,248.4748,33.516249)"
       gradientUnits="userSpaceOnUse"
       id="linearGradient3395"
       xlink:href="#linearGradient3274"
       inkscape:collect="always" />
    <linearGradient
       y2="823.05176"
       x2="106.03448"
       y1="868.04443"
       x1="105.17242"
       gradientTransform="matrix(0.90384616,0,0,0.90384616,220.02652,2.4817665)"
       gradientUnits="userSpaceOnUse"
       id="linearGradient3391"
       xlink:href="#linearGradient3274"
       inkscape:collect="always" />
    <linearGradient
       y2="823.05176"
       x2="106.03448"
       y1="868.04443"
       x1="105.17242"
       gradientTransform="matrix(0.90384616,0,0,0.90384616,172.61273,1.6196975)"
       gradientUnits="userSpaceOnUse"
       id="linearGradient3387"
       xlink:href="#linearGradient3274"
       inkscape:collect="always" />
    <linearGradient
       y2="823.91388"
       x2="195.68967"
       y1="870.81427"
       x1="195.68967"
       gradientTransform="matrix(0.90384075,0,0,0.90384242,67.358353,34.54223)"
       gradientUnits="userSpaceOnUse"
       id="linearGradient3383"
       xlink:href="#linearGradient3282"
       inkscape:collect="always" />
    <linearGradient
       y2="823.91388"
       x2="195.68967"
       y1="870.81427"
       x1="195.68967"
       gradientTransform="matrix(0.90384075,0,0,0.90384242,46.668698,-3.3888044)"
       gradientUnits="userSpaceOnUse"
       id="linearGradient3379"
       xlink:href="#linearGradient3282"
       inkscape:collect="always" />
    <linearGradient
       y2="823.05176"
       x2="106.03448"
       y1="868.04443"
       x1="105.17242"
       gradientTransform="matrix(0.90384616,0,0,0.90384616,126.06101,-64.759613)"
       gradientUnits="userSpaceOnUse"
       id="linearGradient3375"
       xlink:href="#linearGradient3274"
       inkscape:collect="always" />
    <linearGradient
       y2="823.05176"
       x2="106.03448"
       y1="868.04443"
       x1="105.17242"
       gradientTransform="matrix(0.90384616,0,0,0.90384616,81.233424,-66.483751)"
       gradientUnits="userSpaceOnUse"
       id="linearGradient3371"
       xlink:href="#linearGradient3274"
       inkscape:collect="always" />
    <clipPath
       id="clipPath3355"
       clipPathUnits="userSpaceOnUse">
      <rect
         style="fill:#333333;fill-opacity:1"
         id="rect3357"
         width="375.77701"
         height="172.95258"
         x="14.583333"
         y="662.34784" />
    </clipPath>
    <linearGradient
       y2="823.05176"
       x2="106.03448"
       y1="868.04443"
       x1="105.17242"
       gradientTransform="matrix(0.90384616,0,0,0.90384616,-79.973473,-63.035475)"
       gradientUnits="userSpaceOnUse"
       id="linearGradient3351"
       xlink:href="#linearGradient3274"
       inkscape:collect="always" />
    <linearGradient
       y2="823.91388"
       x2="195.68967"
       y1="870.81427"
       x1="195.68967"
       gradientTransform="matrix(0.90384075,0,0,0.90384242,-41.262336,-37.871563)"
       gradientUnits="userSpaceOnUse"
       id="linearGradient3347"
       xlink:href="#linearGradient3282"
       inkscape:collect="always" />
    <linearGradient
       y2="823.91388"
       x2="195.68967"
       y1="870.81427"
       x1="195.68967"
       gradientTransform="matrix(0.90384075,0,0,0.90384242,-86.089922,-37.009494)"
       gradientUnits="userSpaceOnUse"
       id="linearGradient3343"
       xlink:href="#linearGradient3282"
       inkscape:collect="always" />
    <linearGradient
       y2="823.05176"
       x2="106.03448"
       y1="868.04443"
       x1="105.17242"
       gradientTransform="matrix(0.90384616,0,0,0.90384616,-52.387266,-38.897544)"
       gradientUnits="userSpaceOnUse"
       id="linearGradient3339"
       xlink:href="#linearGradient3274"
       inkscape:collect="always" />
    <linearGradient
       y2="823.05176"
       x2="106.03448"
       y1="868.04443"
       x1="105.17242"
       gradientTransform="matrix(0.90384616,0,0,0.90384616,-28.249335,2.4817664)"
       gradientUnits="userSpaceOnUse"
       id="linearGradient3335"
       xlink:href="#linearGradient3274"
       inkscape:collect="always" />
    <linearGradient
       gradientTransform="matrix(0.90384075,0,0,0.90384242,-82.641646,38.852575)"
       gradientUnits="userSpaceOnUse"
       y2="823.91388"
       x2="195.68967"
       y1="870.81427"
       x1="195.68967"
       id="linearGradient3288"
       xlink:href="#linearGradient3282"
       inkscape:collect="always" />
    <linearGradient
       gradientTransform="matrix(0.90384616,0,0,0.90384616,-53.249335,38.688663)"
       gradientUnits="userSpaceOnUse"
       y2="823.05176"
       x2="106.03448"
       y1="868.04443"
       x1="105.17242"
       id="linearGradient3280"
       xlink:href="#linearGradient3274"
       inkscape:collect="always" />
    <linearGradient
       id="linearGradient3274">
      <stop
         id="stop3276"
         offset="0"
         style="stop-color:#4d4d4d;stop-opacity:1;" />
      <stop
         id="stop3278"
         offset="1"
         style="stop-color:#4d4d4d;stop-opacity:0;" />
    </linearGradient>
    <linearGradient
       id="linearGradient3282"
       inkscape:collect="always">
      <stop
         id="stop3284"
         offset="0"
         style="stop-color:#666666;stop-opacity:1;" />
      <stop
         id="stop3286"
         offset="1"
         style="stop-color:#666666;stop-opacity:0;" />
    </linearGradient>
    <clipPath
       id="clipPath3979"
       clipPathUnits="userSpaceOnUse">
      <path
         transform="matrix(1.114551,0,0.68762137,1.3095981,367.7738,735.8871)"
         d="m 343.10344,201.29311 a 139.22414,139.22414 0 1 1 -278.448273,0 139.22414,139.22414 0 1 1 278.448273,0 z"
         sodipodi:ry="139.22414"
         sodipodi:rx="139.22414"
         sodipodi:cy="201.29311"
         sodipodi:cx="203.8793"
         id="path3981"
         style="fill:#5fbcd3;fill-opacity:1"
         sodipodi:type="arc" />
    </clipPath>
    <clipPath
       id="clipPath3975"
       clipPathUnits="userSpaceOnUse">
      <path
         transform="matrix(1.114551,0,0.68762137,1.3095981,367.7738,735.8871)"
         d="m 343.10344,201.29311 a 139.22414,139.22414 0 1 1 -278.448273,0 139.22414,139.22414 0 1 1 278.448273,0 z"
         sodipodi:ry="139.22414"
         sodipodi:rx="139.22414"
         sodipodi:cy="201.29311"
         sodipodi:cx="203.8793"
         id="path3977"
         style="fill:#5fbcd3;fill-opacity:1"
         sodipodi:type="arc" />
    </clipPath>
    <clipPath
       id="clipPath3971"
       clipPathUnits="userSpaceOnUse">
      <path
         transform="matrix(1.114551,0,0.68762137,1.3095981,367.7738,735.8871)"
         d="m 343.10344,201.29311 a 139.22414,139.22414 0 1 1 -278.448273,0 139.22414,139.22414 0 1 1 278.448273,0 z"
         sodipodi:ry="139.22414"
         sodipodi:rx="139.22414"
         sodipodi:cy="201.29311"
         sodipodi:cx="203.8793"
         id="path3973"
         style="fill:#5fbcd3;fill-opacity:1"
         sodipodi:type="arc" />
    </clipPath>
    <linearGradient
       y2="219.82758"
       x2="-125.86206"
       y1="81.896545"
       x1="-127.5862"
       gradientTransform="matrix(0.90000003,0,0,1.870811,932.85717,661.48095)"
       gradientUnits="userSpaceOnUse"
       id="linearGradient3967"
       xlink:href="#linearGradient3953"
       inkscape:collect="always" />
    <linearGradient
       y2="219.82758"
       x2="-125.86206"
       y1="81.896545"
       x1="-127.5862"
       gradientTransform="matrix(0.28571425,0,0,1.870811,769.23647,662.49387)"
       gradientUnits="userSpaceOnUse"
       id="linearGradient3963"
       xlink:href="#linearGradient3953"
       inkscape:collect="always" />
    <linearGradient
       gradientTransform="matrix(0.68571428,0,0,1.870811,784.5813,671.61027)"
       gradientUnits="userSpaceOnUse"
       y2="219.82758"
       x2="-125.86206"
       y1="81.896545"
       x1="-127.5862"
       id="linearGradient3959"
       xlink:href="#linearGradient3953"
       inkscape:collect="always" />
    <linearGradient
       id="linearGradient3953">
      <stop
         id="stop3955"
         offset="0"
         style="stop-color:#ffffff;stop-opacity:0.80000001;" />
      <stop
         id="stop3957"
         offset="1"
         style="stop-color:#ffffff;stop-opacity:0;" />
    </linearGradient>
  </defs>
  <sodipodi:namedview
     id="base"
     pagecolor="#ffffff"
     bordercolor="#666666"
     borderopacity="1.0"
     inkscape:pageopacity="0.0"
     inkscape:pageshadow="2"
     inkscape:zoom="0.56401006"
     inkscape:cx="196.08556"
     inkscape:cy="411.34018"
     inkscape:document-units="px"
     inkscape:current-layer="layer1"
     showgrid="false"
     fit-margin-top="0"
     fit-margin-left="0"
     fit-margin-right="0"
     fit-margin-bottom="0"
     inkscape:window-width="1280"
     inkscape:window-height="682"
     inkscape:window-x="0"
     inkscape:window-y="0"
     inkscape:window-maximized="1" />
  <metadata
     id="metadata2998">
    <rdf:RDF>
      <cc:Work
         rdf:about="">
        <dc:format>image/svg+xml</dc:format>
        <dc:type
           rdf:resource="http://purl.org/dc/dcmitype/StillImage" />
        <dc:title></dc:title>
      </cc:Work>
    </rdf:RDF>
  </metadata>
  <g
     inkscape:label="Layer 1"
     inkscape:groupmode="layer"
     id="layer1"
     transform="translate(-178.91444,10.31816)">
    <g
       transform="translate(90.343018,-34.285654)"
       id="layer1-3"
       inkscape:label="Layer 1">
      <rect
         y="321.17276"
         x="96.974648"
         height="466.52948"
         width="375.77673"
         id="rect3416"
         style="fill:#c83737;fill-opacity:1" />
      <g
         id="g3426">
        <rect
           style="fill:#b3b3b3;fill-opacity:1"
           id="rect3412"
           width="392.17111"
           height="71.428574"
           x="88.571426"
           y="775.2193" />
        <rect
           y="774.505"
           x="88.571426"
           height="7.8571715"
           width="392.17111"
           id="rect3414"
           style="fill:#e6e6e6;fill-opacity:1" />
      </g>
      <g
         transform="translate(0,-60.000057)"
         id="g3430">
        <rect
           y="346.64786"
           x="88.571426"
           height="25.714193"
           width="392.17111"
           id="rect3418"
           style="fill:#999999;fill-opacity:1" />
        <rect
           style="fill:#b3b3b3;fill-opacity:1"
           id="rect3422"
           width="382.06958"
           height="6.0459561"
           x="93.117111"
           y="350.76025" />
        <rect
           y="372.60132"
           x="96.974648"
           height="15.100922"
           width="375.77673"
           id="rect3424"
           style="fill:#a02c2c;fill-opacity:1" />
      </g>
      <rect
         ry="3.8333333"
         rx="3.8333333"
         y="726.64789"
         x="105.71428"
         height="32.857143"
         width="55.85714"
         id="rect3435"
         style="fill:#d35f5f;fill-opacity:1" />
      <rect
         style="fill:#de8787;fill-opacity:1"
         id="rect3439"
         width="55.85714"
         height="32.857143"
         x="411.42856"
         y="330.93362"
         rx="3.8333333"
         ry="3.8333333" />
      <rect
         style="fill:#d35f5f;fill-opacity:1"
         id="rect3441"
         width="55.85714"
         height="32.857143"
         x="122.85714"
         y="686.64789"
         rx="3.8333333"
         ry="3.8333333" />
      <rect
         ry="3.8333333"
         rx="3.8333333"
         y="726.64789"
         x="170"
         height="32.857143"
         width="55.85714"
         id="rect3443"
         style="fill:#d35f5f;fill-opacity:1" />
      <rect
         ry="3.8333333"
         rx="3.8333333"
         y="648.07648"
         x="150"
         height="32.857143"
         width="55.85714"
         id="rect3445"
         style="fill:#de8787;fill-opacity:1" />
      <rect
         ry="3.8333333"
         rx="3.8333333"
         y="632.36218"
         x="408.57144"
         height="32.857143"
         width="55.85714"
         id="rect3447"
         style="fill:#d35f5f;fill-opacity:1" />
      <rect
         style="fill:#d35f5f;fill-opacity:1"
         id="rect3449"
         width="55.85714"
         height="32.857143"
         x="384.28571"
         y="370.93359"
         rx="3.8333333"
         ry="3.8333333" />
      <rect
         ry="3.8333333"
         rx="3.8333333"
         y="412.36215"
         x="408.57141"
         height="32.857143"
         width="55.85714"
         id="rect3451"
         style="fill:#d35f5f;fill-opacity:1" />
      <rect
         style="fill:#d35f5f;fill-opacity:1"
         id="rect3453"
         width="55.85714"
         height="32.857143"
         x="345.71429"
         y="632.36218"
         rx="3.8333333"
         ry="3.8333333" />
      <rect
         style="fill:#de8787;fill-opacity:1"
         id="rect3455"
         width="55.85714"
         height="32.857143"
         x="104.28571"
         y="425.21933"
         rx="3.8333333"
         ry="3.8333333" />
      <rect
         ry="3.8333333"
         rx="3.8333333"
         y="593.79071"
         x="375.71426"
         height="32.857143"
         width="55.85714"
         id="rect3457"
         style="fill:#de8787;fill-opacity:1" />
      <rect
         ry="3.8333333"
         rx="3.8333333"
         y="463.79074"
         x="128.57143"
         height="32.857143"
         width="55.85714"
         id="rect3459"
         style="fill:#d35f5f;fill-opacity:1" />
      <rect
         style="fill:#d35f5f;fill-opacity:1"
         id="rect3461"
         width="55.85714"
         height="32.857143"
         x="168.57143"
         y="422.36218"
         rx="3.8333333"
         ry="3.8333333" />
      <rect
         ry="3.8333333"
         rx="3.8333333"
         y="382.36218"
         x="198.57143"
         height="32.857143"
         width="55.85714"
         id="rect3463"
         style="fill:#d35f5f;fill-opacity:1" />
      <rect
         ry="3.8333333"
         rx="3.8333333"
         y="460.93362"
         x="191.42857"
         height="32.857143"
         width="55.85714"
         id="rect3465"
         style="fill:#d35f5f;fill-opacity:1" />
    </g>
    <g
       transform="translate(93.536216,-331.49092)"
       id="layer1-0"
       inkscape:label="Layer 1">
      <rect
         y="321.17276"
         x="96.974648"
         height="93.67234"
         width="87.205307"
         id="rect3416-4"
         style="fill:#c83737;fill-opacity:1" />
      <rect
         style="fill:#d35f5f;fill-opacity:1"
         id="rect3449-6"
         width="55.85714"
         height="32.857143"
         x="112.85714"
         y="373.79074"
         rx="3.8333333"
         ry="3.8333333" />
      <rect
         clip-path="url(#clipPath3103)"
         style="fill:#de8787;fill-opacity:1"
         id="rect3455-0"
         width="55.85714"
         height="32.857143"
         x="87.142868"
         y="330.93359"
         rx="3.8333333"
         ry="3.8333333" />
    </g>
    <g
       transform="translate(238.27313,399.14027)"
       id="layer1-5"
       inkscape:label="Layer 1">
      <rect
         y="115.66912"
         x="140.61736"
         height="223.85393"
         width="138.34933"
         id="rect3306"
         style="fill:#ffffff;fill-opacity:1" />
      <rect
         style="fill:#666666;fill-opacity:1"
         id="rect3308"
         width="124.84093"
         height="216.13483"
         x="147.37157"
         y="123.38821" />
      <rect
         y="127.7302"
         x="151.23112"
         height="211.79283"
         width="116.15694"
         id="rect3310"
         style="fill:#cccccc;fill-opacity:1" />
      <rect
         style="fill:#ffffff;fill-opacity:1"
         id="rect3312"
         width="103.13096"
         height="207.93329"
         x="157.5029"
         y="131.58975" />
    </g>
    <g
       transform="matrix(0.22944192,0,0,0.22944192,427.19334,363.21205)"
       id="layer1-58"
       inkscape:label="Layer 1">
      <path
         transform="translate(0,852.36218)"
         d="m 153.44827,98.922417 c 0,28.447423 -23.06119,51.508623 -51.50862,51.508623 -28.447424,0 -51.50862,-23.0612 -51.50862,-51.508623 0,-28.447426 23.061196,-51.508622 51.50862,-51.508622 28.44743,0 51.50862,23.061196 51.50862,51.508622 z"
         sodipodi:ry="51.508621"
         sodipodi:rx="51.508621"
         sodipodi:cy="98.922417"
         sodipodi:cx="101.93965"
         id="path3185"
         style="fill:#808080;fill-opacity:1"
         sodipodi:type="arc" />
      <path
         sodipodi:type="arc"
         style="fill:#000000;fill-opacity:1"
         id="path3187"
         sodipodi:cx="101.93965"
         sodipodi:cy="98.922417"
         sodipodi:rx="51.508621"
         sodipodi:ry="51.508621"
         d="m 153.44827,98.922417 c 0,28.447423 -23.06119,51.508623 -51.50862,51.508623 -28.447424,0 -51.50862,-23.0612 -51.50862,-51.508623 0,-28.447426 23.061196,-51.508622 51.50862,-51.508622 28.44743,0 51.50862,23.061196 51.50862,51.508622 z"
         transform="matrix(0.85774058,0,0,0.85774058,14.932909,866.86586)" />
    </g>
    <g
       transform="matrix(0.22504605,0,0,0.22504605,459.90713,426.94015)"
       id="layer1-57"
       inkscape:label="Layer 1">
      <path
         sodipodi:type="arc"
         style="fill:#c8beb7;fill-opacity:1"
         id="path2993"
         sodipodi:cx="102.80173"
         sodipodi:cy="107.97414"
         sodipodi:rx="54.956898"
         sodipodi:ry="54.956898"
         d="m 157.75863,107.97414 c 0,30.35185 -24.60505,54.95689 -54.9569,54.95689 -30.351859,0 -54.9569,-24.60504 -54.9569,-54.95689 0,-30.35186 24.605041,-54.956901 54.9569,-54.956901 30.35185,0 54.9569,24.605041 54.9569,54.956901 z"
         transform="matrix(0.96862745,0,0,0.96862745,8.3975659,869.11167)" />
      <path
         transform="translate(-1.7241379,841.15528)"
         d="m 157.75863,107.97414 c 0,30.35185 -24.60505,54.95689 -54.9569,54.95689 -30.351859,0 -54.9569,-24.60504 -54.9569,-54.95689 0,-30.35186 24.605041,-54.956901 54.9569,-54.956901 30.35185,0 54.9569,24.605041 54.9569,54.956901 z"
         sodipodi:ry="54.956898"
         sodipodi:rx="54.956898"
         sodipodi:cy="107.97414"
         sodipodi:cx="102.80173"
         id="path2985"
         style="fill:#ffe680;fill-opacity:1"
         sodipodi:type="arc" />
      <path
         sodipodi:type="arc"
         style="fill:#d4aa00;fill-opacity:1"
         id="path2987"
         sodipodi:cx="102.80173"
         sodipodi:cy="107.97414"
         sodipodi:rx="54.956898"
         sodipodi:ry="54.956898"
         d="m 157.75863,107.97414 c 0,30.35185 -24.60505,54.95689 -54.9569,54.95689 -30.351859,0 -54.9569,-24.60504 -54.9569,-54.95689 0,-30.35186 24.605041,-54.956901 54.9569,-54.956901 30.35185,0 54.9569,24.605041 54.9569,54.956901 z"
         transform="matrix(0.92156863,0,0,0.92156863,6.3387425,850.05487)" />
      <path
         transform="matrix(0.82745098,0,0,0.82745098,15.583164,860.21715)"
         d="m 157.75863,107.97414 c 0,30.35185 -24.60505,54.95689 -54.9569,54.95689 -30.351859,0 -54.9569,-24.60504 -54.9569,-54.95689 0,-30.35186 24.605041,-54.956901 54.9569,-54.956901 30.35185,0 54.9569,24.605041 54.9569,54.956901 z"
         sodipodi:ry="54.956898"
         sodipodi:rx="54.956898"
         sodipodi:cy="107.97414"
         sodipodi:cx="102.80173"
         id="path2989"
         style="fill:#ffe680;fill-opacity:1"
         sodipodi:type="arc" />
      <path
         sodipodi:type="arc"
         style="fill:#fff6d5;fill-opacity:1"
         id="path2991"
         sodipodi:cx="102.80173"
         sodipodi:cy="107.97414"
         sodipodi:rx="54.956898"
         sodipodi:ry="54.956898"
         d="m 157.75863,107.97414 c 0,30.35185 -24.60505,54.95689 -54.9569,54.95689 -30.351859,0 -54.9569,-24.60504 -54.9569,-54.95689 0,-30.35186 24.605041,-54.956901 54.9569,-54.956901 30.35185,0 54.9569,24.605041 54.9569,54.956901 z"
         transform="matrix(0.35294119,0,0,0.35294119,62.423935,886.23642)" />
    </g>
    <g
       transform="translate(173.29795,-583.04282)"
       id="layer1-50"
       inkscape:label="Layer 1">
      <rect
         y="662.34784"
         x="14.583333"
         height="172.95258"
         width="375.77701"
         id="rect3265"
         style="fill:#333333;fill-opacity:1" />
      <rect
         style="fill:url(#linearGradient3395);fill-opacity:1"
         id="rect3393"
         width="40.517242"
         height="65.558273"
         x="323.27588"
         y="761.84497"
         rx="22.596153"
         ry="22.596153" />
      <rect
         ry="22.596153"
         rx="22.596153"
         y="767.0174"
         x="21.551731"
         height="65.558273"
         width="40.517242"
         id="rect3270"
         style="fill:url(#linearGradient3280);fill-opacity:1" />
      <rect
         style="fill:url(#linearGradient3288);fill-opacity:1"
         id="rect3272"
         width="40.516998"
         height="65.557999"
         x="72.413795"
         y="767.9574"
         rx="22.596018"
         ry="22.59606" />
      <rect
         style="fill:url(#linearGradient3405);fill-opacity:1"
         id="rect3333"
         width="40.517242"
         height="65.558273"
         x="46.551731"
         y="730.81049"
         rx="22.596153"
         ry="22.596153" />
      <rect
         ry="22.596153"
         rx="22.596153"
         y="689.43115"
         x="22.413799"
         height="65.558273"
         width="40.517242"
         id="rect3337"
         style="fill:url(#linearGradient3339);fill-opacity:1" />
      <rect
         ry="22.59606"
         rx="22.596018"
         y="692.09534"
         x="68.965523"
         height="65.557999"
         width="40.516998"
         id="rect3341"
         style="fill:url(#linearGradient3343);fill-opacity:1" />
      <rect
         style="fill:url(#linearGradient3347);fill-opacity:1"
         id="rect3345"
         width="40.516998"
         height="65.557999"
         x="113.79311"
         y="691.23328"
         rx="22.596018"
         ry="22.59606" />
      <rect
         clip-path="url(#clipPath3355)"
         ry="22.596153"
         rx="22.596153"
         y="665.29327"
         x="-5.1724067"
         height="65.558273"
         width="40.517242"
         id="rect3349"
         style="fill:url(#linearGradient3351);fill-opacity:1" />
      <rect
         ry="22.596153"
         rx="22.596153"
         y="730.81049"
         x="46.551731"
         height="65.558273"
         width="40.517242"
         id="rect3359"
         style="fill:url(#linearGradient3335);fill-opacity:1" />
      <rect
         style="fill:url(#linearGradient3371);fill-opacity:1"
         id="rect3363"
         width="40.517242"
         height="65.558273"
         x="156.0345"
         y="661.84497"
         rx="22.596153"
         ry="22.596153" />
      <rect
         ry="22.596153"
         rx="22.596153"
         y="663.56909"
         x="200.86209"
         height="65.558273"
         width="40.517242"
         id="rect3373"
         style="fill:url(#linearGradient3375);fill-opacity:1" />
      <rect
         style="fill:url(#linearGradient3383);fill-opacity:1"
         id="rect3381"
         width="40.516998"
         height="65.557999"
         x="222.4138"
         y="763.64709"
         rx="22.596018"
         ry="22.59606" />
      <rect
         ry="22.59606"
         rx="22.596018"
         y="725.71606"
         x="201.72415"
         height="65.557999"
         width="40.516998"
         id="rect3377"
         style="fill:url(#linearGradient3379);fill-opacity:1" />
      <rect
         style="fill:url(#linearGradient3387);fill-opacity:1"
         id="rect3385"
         width="40.517242"
         height="65.558273"
         x="247.4138"
         y="729.94843"
         rx="22.596153"
         ry="22.596153" />
      <rect
         ry="22.596153"
         rx="22.596153"
         y="730.81049"
         x="294.82761"
         height="65.558273"
         width="40.517242"
         id="rect3389"
         style="fill:url(#linearGradient3391);fill-opacity:1" />
      <rect
         ry="22.59606"
         rx="22.596018"
         y="698.99194"
         x="273.27588"
         height="65.557999"
         width="40.516998"
         id="rect3397"
         style="fill:url(#linearGradient3399);fill-opacity:1" />
      <rect
         style="fill:url(#linearGradient3403);fill-opacity:1"
         id="rect3401"
         width="40.516998"
         height="65.557999"
         x="344.82761"
         y="728.30231"
         rx="22.596018"
         ry="22.59606" />
    </g>
    <g
       transform="matrix(0.42758547,0,0,0.42758547,216.60875,239.68063)"
       id="layer1-1"
       inkscape:label="Layer 1">
      <rect
         style="fill:#000000;fill-opacity:0.25"
         id="rect5444"
         width="182.70619"
         height="366.81714"
         x="60.39727"
         y="680.37262" />
      <rect
         y="663.56903"
         x="37.068962"
         height="362.93103"
         width="188.16048"
         id="rect5436"
         style="fill:#ffffff;fill-opacity:1" />
      <rect
         style="fill:#5fbcd3;fill-opacity:1"
         id="rect5438"
         width="166.33388"
         height="323.86194"
         x="48.358593"
         y="681.04736" />
      <rect
         y="690.30054"
         x="55.88501"
         height="314.60876"
         width="150.52838"
         id="rect5440"
         style="fill:#87cdde;fill-opacity:1" />
      <rect
         style="fill:#5fbcd3;fill-opacity:1"
         id="rect4477"
         width="160.30147"
         height="20.562685"
         x="50.998474"
         y="889.37695" />
      <rect
         style="fill:#999999;fill-opacity:1"
         id="rect5442"
         width="166.4924"
         height="20.562685"
         x="48.180801"
         y="883.5896" />
      <rect
         y="684.23828"
         x="75.100327"
         height="320.96213"
         width="14.539026"
         id="rect4442"
         style="fill:#5fbcd3;fill-opacity:1" />
      <rect
         style="fill:#5fbcd3;fill-opacity:1"
         id="rect4444"
         width="14.539026"
         height="320.96213"
         x="108.56896"
         y="684.23828" />
      <rect
         y="684.23828"
         x="142.86896"
         height="320.96213"
         width="14.539026"
         id="rect4467"
         style="fill:#5fbcd3;fill-opacity:1" />
      <rect
         style="fill:#5fbcd3;fill-opacity:1"
         id="rect4469"
         width="14.539026"
         height="320.96213"
         x="176.56897"
         y="684.23828" />
      <rect
         y="883.5896"
         x="55.959087"
         height="20.562685"
         width="150.38023"
         id="rect6214"
         style="fill:#b3b3b3;fill-opacity:1" />
      <rect
         style="fill:#cccccc;fill-opacity:1"
         id="rect4479"
         width="150.38023"
         height="3.9011962"
         x="55.959087"
         y="885.63574" />
      <rect
         style="fill:#999999;fill-opacity:1"
         id="rect4471"
         width="16.84724"
         height="20.562685"
         x="106.26896"
         y="883.5896" />
      <rect
         y="883.5896"
         x="72.783958"
         height="20.562685"
         width="16.84724"
         id="rect4446"
         style="fill:#999999;fill-opacity:1" />
      <rect
         style="fill:#b3b3b3;fill-opacity:1"
         id="rect4434"
         width="14.539026"
         height="334.82089"
         x="71.793251"
         y="675.1438" />
      <rect
         y="675.1438"
         x="105.69077"
         height="335.64767"
         width="14.539026"
         id="rect4436"
         style="fill:#b3b3b3;fill-opacity:1" />
      <rect
         y="883.5896"
         x="140.56897"
         height="20.562685"
         width="16.84724"
         id="rect4473"
         style="fill:#999999;fill-opacity:1" />
      <rect
         style="fill:#b3b3b3;fill-opacity:1"
         id="rect4438"
         width="14.539026"
         height="337.30121"
         x="140.41507"
         y="674.31702" />
      <rect
         style="fill:#999999;fill-opacity:1"
         id="rect4475"
         width="16.84724"
         height="20.562685"
         x="174.26897"
         y="883.5896" />
      <rect
         y="673.49023"
         x="174.31259"
         height="338.12796"
         width="14.539026"
         id="rect4440"
         style="fill:#b3b3b3;fill-opacity:1" />
      <rect
         y="682.46869"
         x="73.547096"
         height="322.45944"
         width="2.8639591"
         id="rect4481"
         style="fill:#cccccc;fill-opacity:1" />
      <rect
         style="fill:#cccccc;fill-opacity:1"
         id="rect4483"
         width="3.7910321"
         height="321.82468"
         x="107.73692"
         y="682.85266" />
      <rect
         y="682.56897"
         x="141.8766"
         height="321.71576"
         width="3.7910316"
         id="rect4485"
         style="fill:#cccccc;fill-opacity:1" />
      <rect
         style="fill:#cccccc;fill-opacity:1"
         id="rect4487"
         width="4.6178002"
         height="322.30035"
         x="176.06644"
         y="682.03448" />
    </g>
    <g
       transform="matrix(0.27791375,0,0,0.27791375,422.86154,164.99093)"
       id="layer1-9"
       inkscape:label="Layer 1">
      <path
         sodipodi:type="arc"
         style="fill:#000000;fill-opacity:0.25"
         id="path7379"
         sodipodi:cx="203.8793"
         sodipodi:cy="201.29311"
         sodipodi:rx="139.22414"
         sodipodi:ry="139.22414"
         d="m 343.10344,201.29311 c 0,76.89136 -62.33277,139.22413 -139.22414,139.22413 -76.89136,0 -139.224133,-62.33277 -139.224133,-139.22413 0,-76.89137 62.332773,-139.22414 139.224133,-139.22414 76.89137,0 139.22414,62.33277 139.22414,139.22414 z"
         transform="matrix(1.2074303,0,0,1.2074303,-26.342478,631.72857)" />
      <path
         transform="matrix(1.2074303,0,0,1.2074303,-39.273512,606.72857)"
         d="m 343.10344,201.29311 c 0,76.89136 -62.33277,139.22413 -139.22414,139.22413 -76.89136,0 -139.224133,-62.33277 -139.224133,-139.22413 0,-76.89137 62.332773,-139.22414 139.224133,-139.22414 76.89137,0 139.22414,62.33277 139.22414,139.22414 z"
         sodipodi:ry="139.22414"
         sodipodi:rx="139.22414"
         sodipodi:cy="201.29311"
         sodipodi:cx="203.8793"
         id="path6865"
         style="fill:#ffffff;fill-opacity:1"
         sodipodi:type="arc" />
      <path
         sodipodi:type="arc"
         style="fill:#5fbcd3;fill-opacity:1"
         id="path7375"
         sodipodi:cx="203.8793"
         sodipodi:cy="201.29311"
         sodipodi:rx="139.22414"
         sodipodi:ry="139.22414"
         d="m 343.10344,201.29311 c 0,76.89136 -62.33277,139.22413 -139.22414,139.22413 -76.89136,0 -139.224133,-62.33277 -139.224133,-139.22413 0,-76.89137 62.332773,-139.22414 139.224133,-139.22414 76.89137,0 139.22414,62.33277 139.22414,139.22414 z"
         transform="matrix(1.114551,0,0,1.114551,-18.613216,626.28659)" />
      <path
         transform="matrix(1.0712073,0,0,1.0804953,-3.7418593,637.88315)"
         d="m 343.10344,201.29311 c 0,76.89136 -62.33277,139.22413 -139.22414,139.22413 -76.89136,0 -139.224133,-62.33277 -139.224133,-139.22413 0,-76.89137 62.332773,-139.22414 139.224133,-139.22414 76.89137,0 139.22414,62.33277 139.22414,139.22414 z"
         sodipodi:ry="139.22414"
         sodipodi:rx="139.22414"
         sodipodi:cy="201.29311"
         sodipodi:cx="203.8793"
         id="path7377"
         style="fill:#87cdde;fill-opacity:1"
         sodipodi:type="arc" />
      <rect
         clip-path="url(#clipPath3979)"
         transform="matrix(1,0,-0.52506291,0.85106342,0,0)"
         y="815.14667"
         x="676.99512"
         height="288.68549"
         width="41.379307"
         id="rect3951"
         style="fill:url(#linearGradient3959);fill-opacity:1" />
      <rect
         clip-path="url(#clipPath3975)"
         transform="matrix(1,0,-0.52506291,0.85106342,0,0)"
         style="fill:url(#linearGradient3963);fill-opacity:1"
         id="rect3961"
         width="17.241375"
         height="288.68549"
         x="724.40887"
         y="806.03027" />
      <rect
         clip-path="url(#clipPath3971)"
         transform="matrix(1,0,-0.52506291,0.85106342,0,0)"
         style="fill:url(#linearGradient3967);fill-opacity:1"
         id="rect3965"
         width="54.310341"
         height="288.68549"
         x="791.65027"
         y="805.0174" />
    </g>
    <g
       transform="matrix(1.4341573,0,0,1.4341573,179.54289,-542.8437)"
       id="layer1-02"
       inkscape:label="Layer 1">
      <rect
         y="892.87939"
         x="125.86206"
         height="51.724136"
         width="130.17242"
         id="rect7984"
         style="fill:#666666;fill-opacity:1" />
      <rect
         style="fill:#808080;fill-opacity:1"
         id="rect8494"
         width="17.24139"
         height="51.724136"
         x="112.06896"
         y="892.87939" />
      <rect
         y="892.87939"
         x="253.069"
         height="51.724136"
         width="17.24139"
         id="rect8496"
         style="fill:#808080;fill-opacity:1" />
      <rect
         style="fill:#808080;fill-opacity:1"
         id="rect8498"
         width="113.79311"
         height="8.6206942"
         x="134.48276"
         y="921.3277" />
      <rect
         y="892.87939"
         x="134.483"
         height="8.6207314"
         width="113.793"
         id="rect8500"
         style="fill:#808080;fill-opacity:1" />
      <rect
         y="892.87939"
         x="112.06896"
         height="9.4827566"
         width="17.24139"
         id="rect8502"
         style="fill:#999999;fill-opacity:1" />
      <rect
         style="fill:#999999;fill-opacity:1"
         id="rect8504"
         width="17.24139"
         height="11.206895"
         x="253.069"
         y="892.87939" />
    </g>
  </g>
</svg>
