<?xml version="1.0" encoding="UTF-8" standalone="no"?>
<!-- Created with Inkscape (http://www.inkscape.org/) -->

<svg
   xmlns:dc="http://purl.org/dc/elements/1.1/"
   xmlns:cc="http://creativecommons.org/ns#"
   xmlns:rdf="http://www.w3.org/1999/02/22-rdf-syntax-ns#"
   xmlns:svg="http://www.w3.org/2000/svg"
   xmlns="http://www.w3.org/2000/svg"
   xmlns:xlink="http://www.w3.org/1999/xlink"
   xmlns:sodipodi="http://sodipodi.sourceforge.net/DTD/sodipodi-0.dtd"
   xmlns:inkscape="http://www.inkscape.org/namespaces/inkscape"
   width="629.31396"
   height="788.84796"
   id="svg2985"
   version="1.1"
   inkscape:version="0.48.2 r9819"
   sodipodi:docname="New document 2">
  <defs
     id="defs2987">
    <linearGradient
       y2="823.91388"
       x2="195.68967"
       y1="870.81427"
       x1="195.68967"
       gradientTransform="matrix(0.90384075,0,0,0.90384242,406.15146,-13.733633)"
       gradientUnits="userSpaceOnUse"
       id="linearGradient5407"
       xlink:href="#linearGradient3282"
       inkscape:collect="always" />
    <linearGradient
       y2="823.05176"
       x2="106.03448"
       y1="868.04443"
       x1="105.17242"
       gradientTransform="matrix(0.90384616,0,0,0.90384616,465.71619,11.964525)"
       gradientUnits="userSpaceOnUse"
       id="linearGradient5403"
       xlink:href="#linearGradient3274"
       inkscape:collect="always" />
    <linearGradient
       y2="823.91388"
       x2="195.68967"
       y1="870.81427"
       x1="195.68967"
       gradientTransform="matrix(0.90384075,0,0,0.90384242,316.49629,-51.664667)"
       gradientUnits="userSpaceOnUse"
       id="linearGradient5399"
       xlink:href="#linearGradient3282"
       inkscape:collect="always" />
    <linearGradient
       y2="823.05176"
       x2="106.03448"
       y1="868.04443"
       x1="105.17242"
       gradientTransform="matrix(0.90384616,0,0,0.90384616,370.88861,-19.932027)"
       gradientUnits="userSpaceOnUse"
       id="linearGradient5395"
       xlink:href="#linearGradient3274"
       inkscape:collect="always" />
    <linearGradient
       y2="823.05176"
       x2="106.03448"
       y1="868.04443"
       x1="105.17242"
       gradientTransform="matrix(0.90384616,0,0,0.90384616,344.16447,10.240387)"
       gradientUnits="userSpaceOnUse"
       id="linearGradient5391"
       xlink:href="#linearGradient3274"
       inkscape:collect="always" />
    <linearGradient
       y2="823.91388"
       x2="195.68967"
       y1="870.81427"
       x1="195.68967"
       gradientTransform="matrix(0.90384075,0,0,0.90384242,213.91008,11.266367)"
       gradientUnits="userSpaceOnUse"
       id="linearGradient5387"
       xlink:href="#linearGradient3282"
       inkscape:collect="always" />
    <linearGradient
       y2="823.91388"
       x2="195.68967"
       y1="870.81427"
       x1="195.68967"
       gradientTransform="matrix(0.90384075,0,0,0.90384242,281.15146,37.990505)"
       gradientUnits="userSpaceOnUse"
       id="linearGradient5383"
       xlink:href="#linearGradient3282"
       inkscape:collect="always" />
    <linearGradient
       y2="823.05176"
       x2="106.03448"
       y1="868.04443"
       x1="105.17242"
       gradientTransform="matrix(0.90384616,0,0,0.90384616,317.44033,38.688663)"
       gradientUnits="userSpaceOnUse"
       id="linearGradient5379"
       xlink:href="#linearGradient3274"
       inkscape:collect="always" />
    <linearGradient
       y2="823.05176"
       x2="106.03448"
       y1="868.04443"
       x1="105.17242"
       gradientTransform="matrix(0.90384616,0,0,0.90384616,273.47481,37.826594)"
       gradientUnits="userSpaceOnUse"
       id="linearGradient5375"
       xlink:href="#linearGradient3274"
       inkscape:collect="always" />
    <linearGradient
       y2="823.91388"
       x2="195.68967"
       y1="870.81427"
       x1="195.68967"
       gradientTransform="matrix(0.90384075,0,0,0.90384242,89.772148,2.6456777)"
       gradientUnits="userSpaceOnUse"
       id="linearGradient5371"
       xlink:href="#linearGradient3282"
       inkscape:collect="always" />
    <linearGradient
       y2="823.91388"
       x2="195.68967"
       y1="870.81427"
       x1="195.68967"
       gradientTransform="matrix(0.90384075,0,0,0.90384242,65.634217,-30.975012)"
       gradientUnits="userSpaceOnUse"
       id="linearGradient5367"
       xlink:href="#linearGradient3282"
       inkscape:collect="always" />
    <linearGradient
       y2="823.05176"
       x2="106.03448"
       y1="868.04443"
       x1="105.17242"
       gradientTransform="matrix(0.90384616,0,0,0.90384616,171.75067,-62.173406)"
       gradientUnits="userSpaceOnUse"
       id="linearGradient5363"
       xlink:href="#linearGradient3274"
       inkscape:collect="always" />
    <linearGradient
       y2="823.05176"
       x2="106.03448"
       y1="868.04443"
       x1="105.17242"
       gradientTransform="matrix(0.90384616,0,0,0.90384616,126.92308,-63.897544)"
       gradientUnits="userSpaceOnUse"
       id="linearGradient5359"
       xlink:href="#linearGradient3274"
       inkscape:collect="always" />
    <linearGradient
       y2="823.05176"
       x2="106.03448"
       y1="868.04443"
       x1="105.17242"
       gradientTransform="matrix(0.90384616,0,0,0.90384616,6.233423,-54.414785)"
       gradientUnits="userSpaceOnUse"
       id="linearGradient5355"
       xlink:href="#linearGradient3274"
       inkscape:collect="always" />
    <linearGradient
       y2="823.91388"
       x2="195.68967"
       y1="870.81427"
       x1="195.68967"
       gradientTransform="matrix(0.90384075,0,0,0.90384242,-49.020955,-21.492253)"
       gradientUnits="userSpaceOnUse"
       id="linearGradient5351"
       xlink:href="#linearGradient3282"
       inkscape:collect="always" />
    <linearGradient
       y2="823.91388"
       x2="195.68967"
       y1="870.81427"
       x1="195.68967"
       gradientTransform="matrix(0.90384075,0,0,0.90384242,-31.779576,12.128437)"
       gradientUnits="userSpaceOnUse"
       id="linearGradient5347"
       xlink:href="#linearGradient3282"
       inkscape:collect="always" />
    <linearGradient
       y2="823.05176"
       x2="106.03448"
       y1="868.04443"
       x1="105.17242"
       gradientTransform="matrix(0.90384616,0,0,0.90384616,5.3713542,11.964525)"
       gradientUnits="userSpaceOnUse"
       id="linearGradient5343"
       xlink:href="#linearGradient3274"
       inkscape:collect="always" />
    <linearGradient
       y2="823.05176"
       x2="106.03448"
       y1="868.04443"
       x1="105.17242"
       gradientTransform="matrix(0.90384616,0,0,0.90384616,-63.594163,37.826594)"
       gradientUnits="userSpaceOnUse"
       id="linearGradient5339"
       xlink:href="#linearGradient3274"
       inkscape:collect="always" />
    <linearGradient
       gradientTransform="matrix(0.90384075,0,0,0.90384242,-119.71061,5.2318855)"
       gradientUnits="userSpaceOnUse"
       y2="823.91388"
       x2="195.68967"
       y1="870.81427"
       x1="195.68967"
       id="linearGradient3288"
       xlink:href="#linearGradient3282"
       inkscape:collect="always" />
    <linearGradient
       gradientTransform="matrix(0.90384616,0,0,0.90384616,-19.628646,40.412801)"
       gradientUnits="userSpaceOnUse"
       y2="823.05176"
       x2="106.03448"
       y1="868.04443"
       x1="105.17242"
       id="linearGradient3280"
       xlink:href="#linearGradient3274"
       inkscape:collect="always" />
    <linearGradient
       id="linearGradient3274">
      <stop
         id="stop3276"
         offset="0"
         style="stop-color:#4d4d4d;stop-opacity:1;" />
      <stop
         id="stop3278"
         offset="1"
         style="stop-color:#4d4d4d;stop-opacity:0;" />
    </linearGradient>
    <linearGradient
       id="linearGradient3282"
       inkscape:collect="always">
      <stop
         id="stop3284"
         offset="0"
         style="stop-color:#666666;stop-opacity:1;" />
      <stop
         id="stop3286"
         offset="1"
         style="stop-color:#666666;stop-opacity:0;" />
    </linearGradient>
    <clipPath
       id="clipPath4003"
       clipPathUnits="userSpaceOnUse">
      <rect
         transform="matrix(1,0,0.28684749,0.95797626,0,0)"
         y="746.9964"
         x="51.806866"
         height="354.32602"
         width="166.33388"
         id="rect4005"
         style="fill:#5fbcd3;fill-opacity:1" />
    </clipPath>
    <clipPath
       id="clipPath3999"
       clipPathUnits="userSpaceOnUse">
      <rect
         transform="matrix(1,0,0.28684749,0.95797626,0,0)"
         y="746.9964"
         x="51.806866"
         height="354.32602"
         width="166.33388"
         id="rect4001"
         style="fill:#5fbcd3;fill-opacity:1" />
    </clipPath>
    <linearGradient
       y2="232.75865"
       x2="-152.58621"
       y1="84.482796"
       x1="-150"
       gradientTransform="matrix(1.0666667,0,0,1.8705117,607.69965,560.348)"
       gradientUnits="userSpaceOnUse"
       id="linearGradient3995"
       xlink:href="#linearGradient3985"
       inkscape:collect="always" />
    <linearGradient
       gradientTransform="matrix(0.48333332,0,0,1.8705117,434.49562,563.05858)"
       gradientUnits="userSpaceOnUse"
       y2="232.75865"
       x2="-152.58621"
       y1="84.482796"
       x1="-150"
       id="linearGradient3991"
       xlink:href="#linearGradient3985"
       inkscape:collect="always" />
    <linearGradient
       id="linearGradient3985">
      <stop
         id="stop3987"
         offset="0"
         style="stop-color:#ffffff;stop-opacity:0.80000001;" />
      <stop
         id="stop3989"
         offset="1"
         style="stop-color:#ffffff;stop-opacity:0;" />
    </linearGradient>
    <clipPath
       id="clipPath4043"
       clipPathUnits="userSpaceOnUse">
      <rect
         transform="matrix(1,0,0.35051303,0.93655785,0,0)"
         y="784.17078"
         x="48.358593"
         height="372.90076"
         width="166.33388"
         id="rect4045"
         style="fill:#5fbcd3;fill-opacity:1" />
    </clipPath>
    <clipPath
       id="clipPath4039"
       clipPathUnits="userSpaceOnUse">
      <rect
         transform="matrix(1,0,0.35051303,0.93655785,0,0)"
         y="784.17078"
         x="48.358593"
         height="372.90076"
         width="166.33388"
         id="rect4041"
         style="fill:#5fbcd3;fill-opacity:1" />
    </clipPath>
    <clipPath
       id="clipPath4035"
       clipPathUnits="userSpaceOnUse">
      <rect
         transform="matrix(1,0,0.35051303,0.93655785,0,0)"
         y="784.17078"
         x="48.358593"
         height="372.90076"
         width="166.33388"
         id="rect4037"
         style="fill:#5fbcd3;fill-opacity:1" />
    </clipPath>
    <clipPath
       id="clipPath4031"
       clipPathUnits="userSpaceOnUse">
      <rect
         transform="matrix(1,0,0.35051303,0.93655785,0,0)"
         y="784.17078"
         x="48.358593"
         height="372.90076"
         width="166.33388"
         id="rect4033"
         style="fill:#5fbcd3;fill-opacity:1" />
    </clipPath>
    <linearGradient
       y2="219.09373"
       x2="-110.78702"
       y1="83.503654"
       x1="-113.26733"
       gradientTransform="matrix(0.15254235,0,0,1.2173357,409.73121,629.79472)"
       gradientUnits="userSpaceOnUse"
       id="linearGradient4027"
       xlink:href="#linearGradient4009"
       inkscape:collect="always" />
    <linearGradient
       y2="219.09373"
       x2="-110.78702"
       y1="83.503654"
       x1="-113.26733"
       gradientTransform="matrix(1.1525423,0,0,1.2173357,538.70714,629.79472)"
       gradientUnits="userSpaceOnUse"
       id="linearGradient4023"
       xlink:href="#linearGradient4009"
       inkscape:collect="always" />
    <linearGradient
       y2="219.09373"
       x2="-110.78702"
       y1="83.503654"
       x1="-113.26733"
       gradientTransform="matrix(0.20338981,0,0,1.2173357,491.86158,631.57785)"
       gradientUnits="userSpaceOnUse"
       id="linearGradient4019"
       xlink:href="#linearGradient4009"
       inkscape:collect="always" />
    <linearGradient
       gradientTransform="matrix(0.52542372,0,0,1.2173357,552.88833,633.36098)"
       gradientUnits="userSpaceOnUse"
       y2="219.09373"
       x2="-110.78702"
       y1="83.503654"
       x1="-113.26733"
       id="linearGradient4015"
       xlink:href="#linearGradient4009"
       inkscape:collect="always" />
    <linearGradient
       id="linearGradient4009">
      <stop
         id="stop4011"
         offset="0"
         style="stop-color:#ffffff;stop-opacity:0.80000001;" />
      <stop
         id="stop4013"
         offset="1"
         style="stop-color:#ffffff;stop-opacity:0;" />
    </linearGradient>
    <linearGradient
       inkscape:collect="always"
       xlink:href="#linearGradient4009"
       id="linearGradient4872"
       gradientUnits="userSpaceOnUse"
       gradientTransform="matrix(0.52542372,0,0,1.2173357,552.88833,633.36098)"
       x1="-113.26733"
       y1="83.503654"
       x2="-110.78702"
       y2="219.09373" />
    <linearGradient
       inkscape:collect="always"
       xlink:href="#linearGradient4009"
       id="linearGradient4874"
       gradientUnits="userSpaceOnUse"
       gradientTransform="matrix(0.20338981,0,0,1.2173357,491.86158,631.57785)"
       x1="-113.26733"
       y1="83.503654"
       x2="-110.78702"
       y2="219.09373" />
    <linearGradient
       inkscape:collect="always"
       xlink:href="#linearGradient4009"
       id="linearGradient4876"
       gradientUnits="userSpaceOnUse"
       gradientTransform="matrix(1.1525423,0,0,1.2173357,538.70714,629.79472)"
       x1="-113.26733"
       y1="83.503654"
       x2="-110.78702"
       y2="219.09373" />
    <linearGradient
       inkscape:collect="always"
       xlink:href="#linearGradient4009"
       id="linearGradient4878"
       gradientUnits="userSpaceOnUse"
       gradientTransform="matrix(0.15254235,0,0,1.2173357,409.73121,629.79472)"
       x1="-113.26733"
       y1="83.503654"
       x2="-110.78702"
       y2="219.09373" />
    <linearGradient
       inkscape:collect="always"
       xlink:href="#linearGradient3985"
       id="linearGradient4894"
       gradientUnits="userSpaceOnUse"
       gradientTransform="matrix(0.48333332,0,0,1.8705117,434.49562,563.05858)"
       x1="-150"
       y1="84.482796"
       x2="-152.58621"
       y2="232.75865" />
    <linearGradient
       inkscape:collect="always"
       xlink:href="#linearGradient3985"
       id="linearGradient4896"
       gradientUnits="userSpaceOnUse"
       gradientTransform="matrix(1.0666667,0,0,1.8705117,607.69965,560.348)"
       x1="-150"
       y1="84.482796"
       x2="-152.58621"
       y2="232.75865" />
    <linearGradient
       inkscape:collect="always"
       xlink:href="#linearGradient3985"
       id="linearGradient4912"
       gradientUnits="userSpaceOnUse"
       gradientTransform="matrix(0.48333332,0,0,1.8705117,434.49562,563.05858)"
       x1="-150"
       y1="84.482796"
       x2="-152.58621"
       y2="232.75865" />
    <linearGradient
       inkscape:collect="always"
       xlink:href="#linearGradient3985"
       id="linearGradient4914"
       gradientUnits="userSpaceOnUse"
       gradientTransform="matrix(1.0666667,0,0,1.8705117,607.69965,560.348)"
       x1="-150"
       y1="84.482796"
       x2="-152.58621"
       y2="232.75865" />
    <linearGradient
       inkscape:collect="always"
       xlink:href="#linearGradient3985"
       id="linearGradient4930"
       gradientUnits="userSpaceOnUse"
       gradientTransform="matrix(0.48333332,0,0,1.8705117,434.49562,563.05858)"
       x1="-150"
       y1="84.482796"
       x2="-152.58621"
       y2="232.75865" />
    <linearGradient
       inkscape:collect="always"
       xlink:href="#linearGradient3985"
       id="linearGradient4932"
       gradientUnits="userSpaceOnUse"
       gradientTransform="matrix(1.0666667,0,0,1.8705117,607.69965,560.348)"
       x1="-150"
       y1="84.482796"
       x2="-152.58621"
       y2="232.75865" />
    <linearGradient
       inkscape:collect="always"
       xlink:href="#linearGradient4009"
       id="linearGradient4956"
       gradientUnits="userSpaceOnUse"
       gradientTransform="matrix(0.52542372,0,0,1.2173357,552.88833,633.36098)"
       x1="-113.26733"
       y1="83.503654"
       x2="-110.78702"
       y2="219.09373" />
    <linearGradient
       inkscape:collect="always"
       xlink:href="#linearGradient4009"
       id="linearGradient4958"
       gradientUnits="userSpaceOnUse"
       gradientTransform="matrix(0.20338981,0,0,1.2173357,491.86158,631.57785)"
       x1="-113.26733"
       y1="83.503654"
       x2="-110.78702"
       y2="219.09373" />
    <linearGradient
       inkscape:collect="always"
       xlink:href="#linearGradient4009"
       id="linearGradient4960"
       gradientUnits="userSpaceOnUse"
       gradientTransform="matrix(1.1525423,0,0,1.2173357,538.70714,629.79472)"
       x1="-113.26733"
       y1="83.503654"
       x2="-110.78702"
       y2="219.09373" />
    <linearGradient
       inkscape:collect="always"
       xlink:href="#linearGradient4009"
       id="linearGradient4962"
       gradientUnits="userSpaceOnUse"
       gradientTransform="matrix(0.15254235,0,0,1.2173357,409.73121,629.79472)"
       x1="-113.26733"
       y1="83.503654"
       x2="-110.78702"
       y2="219.09373" />
  </defs>
  <sodipodi:namedview
     id="base"
     pagecolor="#ffffff"
     bordercolor="#666666"
     borderopacity="1.0"
     inkscape:pageopacity="0.0"
     inkscape:pageshadow="2"
     inkscape:zoom="0.35"
     inkscape:cx="343.9427"
     inkscape:cy="339.51452"
     inkscape:document-units="px"
     inkscape:current-layer="layer1"
     showgrid="false"
     fit-margin-top="0"
     fit-margin-left="0"
     fit-margin-right="0"
     fit-margin-bottom="0"
     inkscape:window-width="1280"
     inkscape:window-height="682"
     inkscape:window-x="0"
     inkscape:window-y="0"
     inkscape:window-maximized="0" />
  <metadata
     id="metadata2990">
    <rdf:RDF>
      <cc:Work
         rdf:about="">
        <dc:format>image/svg+xml</dc:format>
        <dc:type
           rdf:resource="http://purl.org/dc/dcmitype/StillImage" />
        <dc:title></dc:title>
      </cc:Work>
    </rdf:RDF>
  </metadata>
  <g
     inkscape:label="Layer 1"
     inkscape:groupmode="layer"
     id="layer1"
     transform="translate(-31.057301,-83.02875)">
    <g
       transform="translate(-57.514124,-34.28565)"
       id="layer1-4"
       inkscape:label="Layer 1">
      <rect
         y="321.17276"
         x="102.05601"
         height="466.52948"
         width="603.00604"
         id="rect3416"
         style="fill:#c83737;fill-opacity:1" />
      <g
         transform="matrix(1.6046923,0,0,1,-53.558461,0)"
         id="g3426">
        <rect
           style="fill:#b3b3b3;fill-opacity:1"
           id="rect3412"
           width="392.17111"
           height="71.428574"
           x="88.571426"
           y="775.2193" />
        <rect
           y="774.505"
           x="88.571426"
           height="7.8571715"
           width="392.17111"
           id="rect3414"
           style="fill:#e6e6e6;fill-opacity:1" />
      </g>
      <g
         transform="matrix(1.6046923,0,0,1,-53.558461,-60.000057)"
         id="g3430">
        <rect
           y="346.64786"
           x="88.571426"
           height="25.714193"
           width="392.17111"
           id="rect3418"
           style="fill:#999999;fill-opacity:1" />
        <rect
           style="fill:#b3b3b3;fill-opacity:1"
           id="rect3422"
           width="382.06958"
           height="6.0459561"
           x="93.117111"
           y="350.76025" />
        <rect
           y="372.60132"
           x="96.974648"
           height="15.100922"
           width="375.77673"
           id="rect3424"
           style="fill:#a02c2c;fill-opacity:1" />
      </g>
      <rect
         ry="3.8333333"
         rx="3.8333333"
         y="730.93359"
         x="111.42858"
         height="32.857143"
         width="55.85714"
         id="rect3098"
         style="fill:#d35f5f;fill-opacity:1" />
      <rect
         style="fill:#d35f5f;fill-opacity:1"
         id="rect3100"
         width="55.85714"
         height="32.857143"
         x="174.28572"
         y="731.07605"
         rx="3.8333333"
         ry="3.8333333" />
      <rect
         ry="3.8333333"
         rx="3.8333333"
         y="730.93359"
         x="238.57144"
         height="32.857143"
         width="55.85714"
         id="rect3102"
         style="fill:#d35f5f;fill-opacity:1" />
      <rect
         ry="3.8333333"
         rx="3.8333333"
         y="692.36218"
         x="205.71428"
         height="32.857143"
         width="55.85714"
         id="rect3104"
         style="fill:#d35f5f;fill-opacity:1" />
      <rect
         ry="3.8333333"
         rx="3.8333333"
         y="653.79077"
         x="234.28574"
         height="32.857143"
         width="55.85714"
         id="rect3106"
         style="fill:#de8787;fill-opacity:1" />
      <rect
         ry="3.8333333"
         rx="3.8333333"
         y="333.79074"
         x="264.28574"
         height="32.857143"
         width="55.85714"
         id="rect3108"
         style="fill:#d35f5f;fill-opacity:1" />
      <rect
         style="fill:#d35f5f;fill-opacity:1"
         id="rect3110"
         width="55.85714"
         height="32.857143"
         x="297.14288"
         y="375.2193"
         rx="3.8333333"
         ry="3.8333333" />
      <rect
         ry="3.8333333"
         rx="3.8333333"
         y="332.36218"
         x="330.00003"
         height="32.857143"
         width="55.85714"
         id="rect3112"
         style="fill:#de8787;fill-opacity:1" />
      <rect
         ry="3.8333333"
         rx="3.8333333"
         y="416.64789"
         x="264.28574"
         height="32.857143"
         width="55.85714"
         id="rect3114"
         style="fill:#d35f5f;fill-opacity:1" />
      <rect
         ry="3.8333333"
         rx="3.8333333"
         y="492.36215"
         x="400"
         height="32.857143"
         width="55.85714"
         id="rect3116"
         style="fill:#d35f5f;fill-opacity:1" />
      <rect
         style="fill:#d35f5f;fill-opacity:1"
         id="rect3118"
         width="55.85714"
         height="32.857143"
         x="427.14285"
         y="532.36218"
         rx="3.8333333"
         ry="3.8333333" />
      <rect
         ry="3.8333333"
         rx="3.8333333"
         y="489.50504"
         x="467.14288"
         height="32.857143"
         width="55.85714"
         id="rect3120"
         style="fill:#de8787;fill-opacity:1" />
      <rect
         ry="3.8333333"
         rx="3.8333333"
         y="572.36218"
         x="467.14285"
         height="32.857143"
         width="55.85714"
         id="rect3122"
         style="fill:#d35f5f;fill-opacity:1" />
      <rect
         style="fill:#d35f5f;fill-opacity:1"
         id="rect3124"
         width="55.85714"
         height="32.857143"
         x="638.57141"
         y="576.64789"
         rx="3.8333333"
         ry="3.8333333" />
      <rect
         ry="3.8333333"
         rx="3.8333333"
         y="618.07642"
         x="605.71429"
         height="32.857143"
         width="55.85714"
         id="rect3126"
         style="fill:#d35f5f;fill-opacity:1" />
      <rect
         ry="3.8333333"
         rx="3.8333333"
         y="535.2193"
         x="604.28571"
         height="32.857143"
         width="55.85714"
         id="rect3128"
         style="fill:#de8787;fill-opacity:1" />
    </g>
    <g
       transform="translate(40.910426,-580.18115)"
       id="layer1-3"
       inkscape:label="Layer 1">
      <rect
         y="663.2099"
         x="5.1005745"
         height="172.95258"
         width="603.00598"
         id="rect3265"
         style="fill:#333333;fill-opacity:1" />
      <rect
         style="fill:url(#linearGradient5371);fill-opacity:1"
         id="rect5369"
         width="40.516998"
         height="65.557999"
         x="244.82758"
         y="731.75049"
         rx="22.596018"
         ry="22.59606" />
      <rect
         ry="22.59606"
         rx="22.596018"
         y="698.12982"
         x="220.68965"
         height="65.557999"
         width="40.516998"
         id="rect5365"
         style="fill:url(#linearGradient5367);fill-opacity:1" />
      <rect
         ry="22.596153"
         rx="22.596153"
         y="768.74152"
         x="55.172421"
         height="65.558273"
         width="40.517242"
         id="rect3270"
         style="fill:url(#linearGradient3280);fill-opacity:1" />
      <rect
         style="fill:url(#linearGradient3288);fill-opacity:1"
         id="rect3272"
         width="40.516998"
         height="65.557999"
         x="35.344826"
         y="734.33673"
         rx="22.596018"
         ry="22.59606" />
      <rect
         style="fill:url(#linearGradient5339);fill-opacity:1"
         id="rect5337"
         width="40.517242"
         height="65.558273"
         x="11.206903"
         y="766.15533"
         rx="22.596153"
         ry="22.596153" />
      <rect
         ry="22.596153"
         rx="22.596153"
         y="740.29327"
         x="80.172424"
         height="65.558273"
         width="40.517242"
         id="rect5341"
         style="fill:url(#linearGradient5343);fill-opacity:1" />
      <rect
         ry="22.59606"
         rx="22.596018"
         y="741.23328"
         x="123.27586"
         height="65.557999"
         width="40.516998"
         id="rect5345"
         style="fill:url(#linearGradient5347);fill-opacity:1" />
      <rect
         style="fill:url(#linearGradient5351);fill-opacity:1"
         id="rect5349"
         width="40.516998"
         height="65.557999"
         x="106.03448"
         y="707.61261"
         rx="22.596018"
         ry="22.59606" />
      <rect
         style="fill:url(#linearGradient5355);fill-opacity:1"
         id="rect5353"
         width="40.517242"
         height="65.558273"
         x="81.034492"
         y="673.91394"
         rx="22.596153"
         ry="22.596153" />
      <rect
         ry="22.596153"
         rx="22.596153"
         y="664.43115"
         x="201.72415"
         height="65.558273"
         width="40.517242"
         id="rect5357"
         style="fill:url(#linearGradient5359);fill-opacity:1" />
      <rect
         style="fill:url(#linearGradient5363);fill-opacity:1"
         id="rect5361"
         width="40.517242"
         height="65.558273"
         x="246.55174"
         y="666.15527"
         rx="22.596153"
         ry="22.596153" />
      <rect
         ry="22.596153"
         rx="22.596153"
         y="766.15527"
         x="348.27588"
         height="65.558273"
         width="40.517242"
         id="rect5373"
         style="fill:url(#linearGradient5375);fill-opacity:1" />
      <rect
         style="fill:url(#linearGradient5379);fill-opacity:1"
         id="rect5377"
         width="40.517242"
         height="65.558273"
         x="392.24139"
         y="767.01733"
         rx="22.596153"
         ry="22.596153" />
      <rect
         ry="22.59606"
         rx="22.596018"
         y="767.09534"
         x="436.20688"
         height="65.557999"
         width="40.516998"
         id="rect5381"
         style="fill:url(#linearGradient5383);fill-opacity:1" />
      <rect
         style="fill:url(#linearGradient5387);fill-opacity:1"
         id="rect5385"
         width="40.516998"
         height="65.557999"
         x="368.96548"
         y="740.37122"
         rx="22.596018"
         ry="22.59606" />
      <rect
         style="fill:url(#linearGradient5391);fill-opacity:1"
         id="rect5389"
         width="40.517242"
         height="65.558273"
         x="418.96555"
         y="738.56909"
         rx="22.596153"
         ry="22.596153" />
      <rect
         ry="22.596153"
         rx="22.596153"
         y="708.39667"
         x="445.6897"
         height="65.558273"
         width="40.517242"
         id="rect5393"
         style="fill:url(#linearGradient5395);fill-opacity:1" />
      <rect
         ry="22.59606"
         rx="22.596018"
         y="677.44019"
         x="471.5517"
         height="65.557999"
         width="40.516998"
         id="rect5397"
         style="fill:url(#linearGradient5399);fill-opacity:1" />
      <rect
         ry="22.596153"
         rx="22.596153"
         y="740.29321"
         x="540.51727"
         height="65.558273"
         width="40.517242"
         id="rect5401"
         style="fill:url(#linearGradient5403);fill-opacity:1" />
      <rect
         ry="22.59606"
         rx="22.596018"
         y="715.37122"
         x="561.20685"
         height="65.557999"
         width="40.516998"
         id="rect5405"
         style="fill:url(#linearGradient5407);fill-opacity:1" />
    </g>
    <g
       transform="translate(130.20798,401.90895)"
       id="layer1-8"
       inkscape:label="Layer 1">
      <path
         sodipodi:nodetypes="cccccc"
         inkscape:connector-curvature="0"
         id="rect3306"
         d="m 140.61736,125.66905 70.437,-9.99993 67.91233,9.99993 -5.00033,213.854 -128.349,0 z"
         style="fill:#ffffff;fill-opacity:1" />
      <path
         sodipodi:nodetypes="cccccc"
         inkscape:connector-curvature="0"
         id="rect3308"
         d="m 147.37157,133.38805 63.68279,-9.99984 61.15813,9.99984 -5.00013,206.13498 -114.841,0 z"
         style="fill:#666666;fill-opacity:1" />
      <path
         sodipodi:nodetypes="cccccc"
         inkscape:connector-curvature="0"
         id="rect3310"
         d="m 151.23112,137.73005 59.82324,-9.99985 56.3337,9.99985 -4.9997,201.79298 -106.157,0 z"
         style="fill:#cccccc;fill-opacity:1" />
      <path
         sodipodi:nodetypes="cccccc"
         inkscape:connector-curvature="0"
         id="rect3312"
         d="m 157.5029,141.59005 53.55126,-10.0003 49.5797,10.0003 -4.9995,197.93299 -93.131,0 z"
         style="fill:#ffffff;fill-opacity:1" />
    </g>
    <g
       transform="translate(140.65866,-295.06158)"
       id="layer1-0"
       inkscape:label="Layer 1">
      <rect
         y="783.39667"
         x="119.82758"
         height="36.206898"
         width="164.493"
         id="rect4152"
         style="fill:#333333;fill-opacity:1" />
      <rect
         style="fill:#666666;fill-opacity:1"
         id="rect4154"
         width="158.87616"
         height="9.4827604"
         x="123.03721"
         y="786.84491" />
      <path
         transform="matrix(1.1136364,0,0,1.1136364,-26.097179,577.91077)"
         d="m 168.96552,218.96552 c 0,10.47436 -8.49115,18.96551 -18.96552,18.96551 -10.47437,0 -18.96552,-8.49115 -18.96552,-18.96551 C 131.03448,208.49115 139.52563,200 150,200 c 10.47437,0 18.96552,8.49115 18.96552,18.96552 z"
         sodipodi:ry="18.965517"
         sodipodi:rx="18.965517"
         sodipodi:cy="218.96552"
         sodipodi:cx="150"
         id="path4160"
         style="fill:#333333;fill-opacity:1"
         sodipodi:type="arc" />
      <path
         sodipodi:type="arc"
         style="fill:#333333;fill-opacity:1"
         id="path4170"
         sodipodi:cx="150"
         sodipodi:cy="218.96552"
         sodipodi:rx="18.965517"
         sodipodi:ry="18.965517"
         d="m 168.96552,218.96552 c 0,10.47436 -8.49115,18.96551 -18.96552,18.96551 -10.47437,0 -18.96552,-8.49115 -18.96552,-18.96551 C 131.03448,208.49115 139.52563,200 150,200 c 10.47437,0 18.96552,8.49115 18.96552,18.96552 z"
         transform="matrix(1.1136364,0,0,1.1136364,96.40323,577.91077)" />
      <path
         sodipodi:type="arc"
         style="fill:#333333;fill-opacity:1"
         id="path4172"
         sodipodi:cx="150"
         sodipodi:cy="218.96552"
         sodipodi:rx="18.965517"
         sodipodi:ry="18.965517"
         d="m 168.96552,218.96552 c 0,10.47436 -8.49115,18.96551 -18.96552,18.96551 -10.47437,0 -18.96552,-8.49115 -18.96552,-18.96551 C 131.03448,208.49115 139.52563,200 150,200 c 10.47437,0 18.96552,8.49115 18.96552,18.96552 z"
         transform="matrix(1.1136364,0,0,1.1136364,14.90323,577.91077)" />
      <path
         transform="matrix(1.1136364,0,0,1.1136364,55.90323,577.91077)"
         d="m 168.96552,218.96552 c 0,10.47436 -8.49115,18.96551 -18.96552,18.96551 -10.47437,0 -18.96552,-8.49115 -18.96552,-18.96551 C 131.03448,208.49115 139.52563,200 150,200 c 10.47437,0 18.96552,8.49115 18.96552,18.96552 z"
         sodipodi:ry="18.965517"
         sodipodi:rx="18.965517"
         sodipodi:cy="218.96552"
         sodipodi:cx="150"
         id="path4174"
         style="fill:#333333;fill-opacity:1"
         sodipodi:type="arc" />
      <path
         sodipodi:nodetypes="sssas"
         inkscape:connector-curvature="0"
         id="path4176"
         d="m 138.32892,221.397 c 0,10.47436 22.14545,16.53403 11.67108,16.53403 -10.47437,0 -18.96552,-8.49115 -18.96552,-18.96551 0,-10.47437 2.98893,-9.22936 6.32184,-8.26702 3.44033,0.99336 0.9726,0.22413 0.9726,10.6985 z"
         style="fill:#666666;fill-opacity:1"
         transform="matrix(0.88636367,0,0,0.88636367,7.1316615,628.53773)" />
      <path
         sodipodi:nodetypes="assaa"
         inkscape:connector-curvature="0"
         id="path4178"
         d="m 142.21928,224.31477 c 2.31931,4.68484 18.25509,13.61626 7.78072,13.61626 -10.47437,0 -18.96552,-8.49115 -18.96552,-18.96551 0,-10.47437 2.75102,-7.72046 5.83555,-7.29443 4.53319,0.62612 3.3189,8.54251 5.34925,12.64368 z"
         style="fill:#666666;fill-opacity:1"
         transform="matrix(0.88636367,0,0,0.88636367,49.373041,628.53773)" />
      <path
         sodipodi:nodetypes="assaa"
         inkscape:connector-curvature="0"
         id="path4180"
         d="m 144.65076,224.80106 c 2.07534,4.24588 15.82361,13.12997 5.34924,13.12997 -10.47437,0 -18.96552,-8.49115 -18.96552,-18.96551 0,-10.47437 0.67954,-9.99473 4.37666,-10.2122 6.16188,-0.36247 6.52902,10.50223 9.23962,16.04774 z"
         style="fill:#666666;fill-opacity:1"
         transform="matrix(0.88636367,0,0,0.88636367,90.752351,628.53773)" />
      <path
         sodipodi:nodetypes="assaa"
         inkscape:connector-curvature="0"
         id="path4182"
         d="m 142.70557,224.31477 c 2.36733,4.57254 17.7688,13.61626 7.29443,13.61626 -10.47437,0 -18.96552,-8.49115 -18.96552,-18.96551 0,-10.47437 -0.47927,-10.85742 3.40407,-11.1848 6.1401,-0.51762 5.43402,11.06205 8.26702,16.53405 z"
         style="fill:#666666;fill-opacity:1"
         transform="matrix(0.88636367,0,0,0.88636367,130.40752,627.67566)" />
    </g>
    <g
       transform="matrix(0.32590803,0,0,0.32590803,392.14014,382.59671)"
       id="layer1-2"
       inkscape:label="Layer 1">
      <rect
         style="fill:#333333;fill-opacity:0.5"
         id="rect3130"
         width="44.827587"
         height="123.27587"
         x="83.620689"
         y="723.05182"
         rx="2.7305934"
         ry="2.811111" />
      <rect
         ry="2.811111"
         rx="2.7305934"
         y="717.01733"
         x="77.586205"
         height="123.27587"
         width="44.827587"
         id="rect3126-7"
         style="fill:#333333;fill-opacity:1" />
      <rect
         style="fill:#cccccc;fill-opacity:1"
         id="rect3128-1"
         width="20.689657"
         height="82.758629"
         x="89.655167"
         y="737.70697"
         rx="1.2602739"
         ry="1.8871795" />
      <rect
         ry="1.7692308"
         rx="0.42009139"
         y="740.29315"
         x="91.379303"
         height="77.586212"
         width="6.896554"
         id="rect3947"
         style="fill:#ececec;fill-opacity:1" />
    </g>
    <g
       transform="matrix(1.3742349,0,0,1.3742349,83.325133,-426.23044)"
       id="layer1-1"
       inkscape:label="Layer 1">
      <rect
         style="fill:#808080;fill-opacity:1"
         id="rect8533"
         width="319.13501"
         height="55.99678"
         x="29.605837"
         y="847.90039" />
      <rect
         style="fill:#808080;fill-opacity:1"
         id="rect8529"
         width="106.03452"
         height="51.724136"
         x="252.86195"
         y="865.29321" />
      <rect
         y="865.29321"
         x="23.275858"
         height="51.724136"
         width="106.03452"
         id="rect8525"
         style="fill:#808080;fill-opacity:1" />
      <rect
         y="892.87939"
         x="125.86206"
         height="51.724136"
         width="130.17242"
         id="rect7984"
         style="fill:#666666;fill-opacity:1" />
      <rect
         style="fill:#808080;fill-opacity:1"
         id="rect8494"
         width="17.24139"
         height="51.724136"
         x="112.06896"
         y="892.87939" />
      <rect
         y="892.87939"
         x="253.069"
         height="51.724136"
         width="17.24139"
         id="rect8496"
         style="fill:#808080;fill-opacity:1" />
      <rect
         style="fill:#808080;fill-opacity:1"
         id="rect8498"
         width="113.79311"
         height="8.6206942"
         x="134.48276"
         y="921.3277" />
      <rect
         y="870.46558"
         x="112.06896"
         height="31.89662"
         width="17.24139"
         id="rect8502"
         style="fill:#999999;fill-opacity:1" />
      <rect
         style="fill:#999999;fill-opacity:1"
         id="rect8504"
         width="17.24139"
         height="33.620659"
         x="253.069"
         y="870.46558" />
      <rect
         style="fill:#999999;fill-opacity:1"
         id="rect8527"
         width="106.03452"
         height="8.6206884"
         x="23.275858"
         y="865.29321" />
      <rect
         y="865.29321"
         x="252.86195"
         height="8.6206884"
         width="106.03452"
         id="rect8531"
         style="fill:#999999;fill-opacity:1" />
      <rect
         style="fill:#999999;fill-opacity:1"
         id="rect4128"
         width="10.731598"
         height="26.799906"
         x="348.16489"
         y="847.11401" />
      <rect
         y="847.11401"
         x="22.97296"
         height="26.799906"
         width="10.731598"
         id="rect4132"
         style="fill:#999999;fill-opacity:1" />
    </g>
    <g
       transform="matrix(0.48201728,0,0,0.48201728,68.694357,193.69471)"
       id="layer1-25"
       inkscape:label="Layer 1">
      <rect
         style="fill:#000000;fill-opacity:0.25"
         id="rect5444-4"
         width="182.70619"
         height="366.81714"
         x="60.39727"
         y="680.37262" />
      <rect
         y="663.56903"
         x="37.068962"
         height="362.93103"
         width="188.16048"
         id="rect5436-5"
         style="fill:#ffffff;fill-opacity:1" />
      <rect
         style="fill:#5fbcd3;fill-opacity:1"
         id="rect5438-3"
         width="166.33388"
         height="323.86194"
         x="48.358593"
         y="681.04736" />
      <rect
         y="690.30054"
         x="55.88501"
         height="314.60876"
         width="150.52838"
         id="rect5440-0"
         style="fill:#87cdde;fill-opacity:1" />
      <rect
         style="fill:#e6e6e6;fill-opacity:1"
         id="rect5442"
         width="166.4924"
         height="20.562685"
         x="48.180801"
         y="883.5896" />
      <rect
         y="883.5896"
         x="55.959087"
         height="20.562685"
         width="150.38023"
         id="rect6214"
         style="fill:#ffffff;fill-opacity:1" />
      <rect
         clip-path="url(#clipPath4043)"
         transform="matrix(1,0,-0.37425668,0.92732515,0,0)"
         y="720.92255"
         x="481.64606"
         height="195.25229"
         width="25.629831"
         id="rect4007"
         style="fill:url(#linearGradient4015);fill-opacity:1" />
      <rect
         clip-path="url(#clipPath4039)"
         transform="matrix(1,0,-0.37425668,0.92732515,0,0)"
         style="fill:url(#linearGradient4019);fill-opacity:1"
         id="rect4017"
         width="9.9212246"
         height="195.25229"
         x="464.28394"
         y="719.1394" />
      <rect
         clip-path="url(#clipPath4035)"
         transform="matrix(1,0,-0.37425668,0.92732515,0,0)"
         y="717.35626"
         x="382.43381"
         height="195.25229"
         width="56.220276"
         id="rect4021"
         style="fill:url(#linearGradient4023);fill-opacity:1" />
      <rect
         clip-path="url(#clipPath4031)"
         transform="matrix(1,0,-0.37425668,0.92732515,0,0)"
         style="fill:url(#linearGradient4027);fill-opacity:1"
         id="rect4025"
         width="7.440918"
         height="195.25229"
         x="389.04797"
         y="717.35626" />
    </g>
    <g
       transform="matrix(0.32969503,0,0,0.32969503,338.6797,340.1674)"
       id="layer1-39"
       inkscape:label="Layer 1">
      <path
         sodipodi:type="arc"
         style="fill:#c8beb7;fill-opacity:1"
         id="path2993"
         sodipodi:cx="102.80173"
         sodipodi:cy="107.97414"
         sodipodi:rx="54.956898"
         sodipodi:ry="54.956898"
         d="m 157.75863,107.97414 c 0,30.35185 -24.60505,54.95689 -54.9569,54.95689 -30.351859,0 -54.9569,-24.60504 -54.9569,-54.95689 0,-30.35186 24.605041,-54.956901 54.9569,-54.956901 30.35185,0 54.9569,24.605041 54.9569,54.956901 z"
         transform="matrix(0.96862745,0,0,0.96862745,8.3975659,869.11167)" />
      <path
         transform="translate(-1.7241379,841.15528)"
         d="m 157.75863,107.97414 c 0,30.35185 -24.60505,54.95689 -54.9569,54.95689 -30.351859,0 -54.9569,-24.60504 -54.9569,-54.95689 0,-30.35186 24.605041,-54.956901 54.9569,-54.956901 30.35185,0 54.9569,24.605041 54.9569,54.956901 z"
         sodipodi:ry="54.956898"
         sodipodi:rx="54.956898"
         sodipodi:cy="107.97414"
         sodipodi:cx="102.80173"
         id="path2985"
         style="fill:#ffe680;fill-opacity:1"
         sodipodi:type="arc" />
      <path
         sodipodi:type="arc"
         style="fill:#d4aa00;fill-opacity:1"
         id="path2987"
         sodipodi:cx="102.80173"
         sodipodi:cy="107.97414"
         sodipodi:rx="54.956898"
         sodipodi:ry="54.956898"
         d="m 157.75863,107.97414 c 0,30.35185 -24.60505,54.95689 -54.9569,54.95689 -30.351859,0 -54.9569,-24.60504 -54.9569,-54.95689 0,-30.35186 24.605041,-54.956901 54.9569,-54.956901 30.35185,0 54.9569,24.605041 54.9569,54.956901 z"
         transform="matrix(0.92156863,0,0,0.92156863,6.3387425,850.05487)" />
      <path
         transform="matrix(0.82745098,0,0,0.82745098,15.583164,860.21715)"
         d="m 157.75863,107.97414 c 0,30.35185 -24.60505,54.95689 -54.9569,54.95689 -30.351859,0 -54.9569,-24.60504 -54.9569,-54.95689 0,-30.35186 24.605041,-54.956901 54.9569,-54.956901 30.35185,0 54.9569,24.605041 54.9569,54.956901 z"
         sodipodi:ry="54.956898"
         sodipodi:rx="54.956898"
         sodipodi:cy="107.97414"
         sodipodi:cx="102.80173"
         id="path2989"
         style="fill:#ffe680;fill-opacity:1"
         sodipodi:type="arc" />
      <path
         sodipodi:type="arc"
         style="fill:#fff6d5;fill-opacity:1"
         id="path2991"
         sodipodi:cx="102.80173"
         sodipodi:cy="107.97414"
         sodipodi:rx="54.956898"
         sodipodi:ry="54.956898"
         d="m 157.75863,107.97414 c 0,30.35185 -24.60505,54.95689 -54.9569,54.95689 -30.351859,0 -54.9569,-24.60504 -54.9569,-54.95689 0,-30.35186 24.605041,-54.956901 54.9569,-54.956901 30.35185,0 54.9569,24.605041 54.9569,54.956901 z"
         transform="matrix(0.35294119,0,0,0.35294119,62.423935,886.23642)" />
    </g>
    <g
       inkscape:label="Layer 1"
       id="g4934"
       transform="matrix(0.48201728,0,0,0.48201728,491.5515,193.69471)">
      <rect
         y="680.37262"
         x="60.39727"
         height="366.81714"
         width="182.70619"
         id="rect4936"
         style="fill:#000000;fill-opacity:0.25" />
      <rect
         style="fill:#ffffff;fill-opacity:1"
         id="rect4938"
         width="188.16048"
         height="362.93103"
         x="37.068962"
         y="663.56903" />
      <rect
         y="681.04736"
         x="48.358593"
         height="323.86194"
         width="166.33388"
         id="rect4940"
         style="fill:#5fbcd3;fill-opacity:1" />
      <rect
         style="fill:#87cdde;fill-opacity:1"
         id="rect4942"
         width="150.52838"
         height="314.60876"
         x="55.88501"
         y="690.30054" />
      <rect
         y="883.5896"
         x="48.180801"
         height="20.562685"
         width="166.4924"
         id="rect4944"
         style="fill:#e6e6e6;fill-opacity:1" />
      <rect
         style="fill:#ffffff;fill-opacity:1"
         id="rect4946"
         width="150.38023"
         height="20.562685"
         x="55.959087"
         y="883.5896" />
      <rect
         style="fill:url(#linearGradient4956);fill-opacity:1"
         id="rect4948"
         width="25.629831"
         height="195.25229"
         x="481.64606"
         y="720.92255"
         transform="matrix(1,0,-0.37425668,0.92732515,0,0)"
         clip-path="url(#clipPath4043)" />
      <rect
         y="719.1394"
         x="464.28394"
         height="195.25229"
         width="9.9212246"
         id="rect4950"
         style="fill:url(#linearGradient4958);fill-opacity:1"
         transform="matrix(1,0,-0.37425668,0.92732515,0,0)"
         clip-path="url(#clipPath4039)" />
      <rect
         style="fill:url(#linearGradient4960);fill-opacity:1"
         id="rect4952"
         width="56.220276"
         height="195.25229"
         x="382.43381"
         y="717.35626"
         transform="matrix(1,0,-0.37425668,0.92732515,0,0)"
         clip-path="url(#clipPath4035)" />
      <rect
         y="717.35626"
         x="389.04797"
         height="195.25229"
         width="7.440918"
         id="rect4954"
         style="fill:url(#linearGradient4962);fill-opacity:1"
         transform="matrix(1,0,-0.37425668,0.92732515,0,0)"
         clip-path="url(#clipPath4031)" />
    </g>
  </g>
</svg>
