<?xml version="1.0" encoding="UTF-8" standalone="no"?>
<!-- Created with Inkscape (http://www.inkscape.org/) -->

<svg
   xmlns:dc="http://purl.org/dc/elements/1.1/"
   xmlns:cc="http://creativecommons.org/ns#"
   xmlns:rdf="http://www.w3.org/1999/02/22-rdf-syntax-ns#"
   xmlns:svg="http://www.w3.org/2000/svg"
   xmlns="http://www.w3.org/2000/svg"
   xmlns:xlink="http://www.w3.org/1999/xlink"
   xmlns:sodipodi="http://sodipodi.sourceforge.net/DTD/sodipodi-0.dtd"
   xmlns:inkscape="http://www.inkscape.org/namespaces/inkscape"
   width="349.13791"
   height="361.20688"
   id="svg6857"
   version="1.1"
   inkscape:version="0.48.2 r9819"
   sodipodi:docname="window-circle.svg">
  <defs
     id="defs6859">
    <linearGradient
       id="linearGradient3953">
      <stop
         style="stop-color:#ffffff;stop-opacity:0.80000001;"
         offset="0"
         id="stop3955" />
      <stop
         style="stop-color:#ffffff;stop-opacity:0;"
         offset="1"
         id="stop3957" />
    </linearGradient>
    <linearGradient
       inkscape:collect="always"
       xlink:href="#linearGradient3953"
       id="linearGradient3959"
       x1="-127.5862"
       y1="81.896545"
       x2="-125.86206"
       y2="219.82758"
       gradientUnits="userSpaceOnUse"
       gradientTransform="matrix(0.68571428,0,0,1.870811,784.5813,671.61027)" />
    <linearGradient
       inkscape:collect="always"
       xlink:href="#linearGradient3953"
       id="linearGradient3963"
       gradientUnits="userSpaceOnUse"
       gradientTransform="matrix(0.28571425,0,0,1.870811,769.23647,662.49387)"
       x1="-127.5862"
       y1="81.896545"
       x2="-125.86206"
       y2="219.82758" />
    <linearGradient
       inkscape:collect="always"
       xlink:href="#linearGradient3953"
       id="linearGradient3967"
       gradientUnits="userSpaceOnUse"
       gradientTransform="matrix(0.90000003,0,0,1.870811,932.85717,661.48095)"
       x1="-127.5862"
       y1="81.896545"
       x2="-125.86206"
       y2="219.82758" />
    <clipPath
       clipPathUnits="userSpaceOnUse"
       id="clipPath3971">
      <path
         sodipodi:type="arc"
         style="fill:#5fbcd3;fill-opacity:1"
         id="path3973"
         sodipodi:cx="203.8793"
         sodipodi:cy="201.29311"
         sodipodi:rx="139.22414"
         sodipodi:ry="139.22414"
         d="m 343.10344,201.29311 a 139.22414,139.22414 0 1 1 -278.448273,0 139.22414,139.22414 0 1 1 278.448273,0 z"
         transform="matrix(1.114551,0,0.68762137,1.3095981,367.7738,735.8871)" />
    </clipPath>
    <clipPath
       clipPathUnits="userSpaceOnUse"
       id="clipPath3975">
      <path
         sodipodi:type="arc"
         style="fill:#5fbcd3;fill-opacity:1"
         id="path3977"
         sodipodi:cx="203.8793"
         sodipodi:cy="201.29311"
         sodipodi:rx="139.22414"
         sodipodi:ry="139.22414"
         d="m 343.10344,201.29311 a 139.22414,139.22414 0 1 1 -278.448273,0 139.22414,139.22414 0 1 1 278.448273,0 z"
         transform="matrix(1.114551,0,0.68762137,1.3095981,367.7738,735.8871)" />
    </clipPath>
    <clipPath
       clipPathUnits="userSpaceOnUse"
       id="clipPath3979">
      <path
         sodipodi:type="arc"
         style="fill:#5fbcd3;fill-opacity:1"
         id="path3981"
         sodipodi:cx="203.8793"
         sodipodi:cy="201.29311"
         sodipodi:rx="139.22414"
         sodipodi:ry="139.22414"
         d="m 343.10344,201.29311 a 139.22414,139.22414 0 1 1 -278.448273,0 139.22414,139.22414 0 1 1 278.448273,0 z"
         transform="matrix(1.114551,0,0.68762137,1.3095981,367.7738,735.8871)" />
    </clipPath>
  </defs>
  <sodipodi:namedview
     id="base"
     pagecolor="#82b6ff"
     bordercolor="#666666"
     borderopacity="1.0"
     inkscape:pageopacity="0.97254902"
     inkscape:pageshadow="2"
     inkscape:zoom="1.16"
     inkscape:cx="161.2069"
     inkscape:cy="190.51723"
     inkscape:document-units="px"
     inkscape:current-layer="layer1"
     showgrid="false"
     inkscape:showpageshadow="false"
     fit-margin-top="0"
     fit-margin-left="0"
     fit-margin-right="0"
     fit-margin-bottom="0"
     inkscape:window-width="1280"
     inkscape:window-height="682"
     inkscape:window-x="0"
     inkscape:window-y="0"
     inkscape:window-maximized="0" />
  <metadata
     id="metadata6862">
    <rdf:RDF>
      <cc:Work
         rdf:about="">
        <dc:format>image/svg+xml</dc:format>
        <dc:type
           rdf:resource="http://purl.org/dc/dcmitype/StillImage" />
        <dc:title />
      </cc:Work>
    </rdf:RDF>
  </metadata>
  <g
     inkscape:label="Layer 1"
     inkscape:groupmode="layer"
     id="layer1"
     transform="translate(-38.793095,-681.67252)">
    <path
       transform="matrix(1.2074303,0,0,1.2074303,-26.342478,631.72857)"
       d="m 343.10344,201.29311 c 0,76.89136 -62.33277,139.22413 -139.22414,139.22413 -76.89136,0 -139.224133,-62.33277 -139.224133,-139.22413 0,-76.89137 62.332773,-139.22414 139.224133,-139.22414 76.89137,0 139.22414,62.33277 139.22414,139.22414 z"
       sodipodi:ry="139.22414"
       sodipodi:rx="139.22414"
       sodipodi:cy="201.29311"
       sodipodi:cx="203.8793"
       id="path7379"
       style="fill:#000000;fill-opacity:0.25"
       sodipodi:type="arc" />
    <path
       sodipodi:type="arc"
       style="fill:#ffffff;fill-opacity:1"
       id="path6865"
       sodipodi:cx="203.8793"
       sodipodi:cy="201.29311"
       sodipodi:rx="139.22414"
       sodipodi:ry="139.22414"
       d="m 343.10344,201.29311 c 0,76.89136 -62.33277,139.22413 -139.22414,139.22413 -76.89136,0 -139.224133,-62.33277 -139.224133,-139.22413 0,-76.89137 62.332773,-139.22414 139.224133,-139.22414 76.89137,0 139.22414,62.33277 139.22414,139.22414 z"
       transform="matrix(1.2074303,0,0,1.2074303,-39.273512,606.72857)" />
    <path
       transform="matrix(1.114551,0,0,1.114551,-18.613216,626.28659)"
       d="m 343.10344,201.29311 c 0,76.89136 -62.33277,139.22413 -139.22414,139.22413 -76.89136,0 -139.224133,-62.33277 -139.224133,-139.22413 0,-76.89137 62.332773,-139.22414 139.224133,-139.22414 76.89137,0 139.22414,62.33277 139.22414,139.22414 z"
       sodipodi:ry="139.22414"
       sodipodi:rx="139.22414"
       sodipodi:cy="201.29311"
       sodipodi:cx="203.8793"
       id="path7375"
       style="fill:#5fbcd3;fill-opacity:1"
       sodipodi:type="arc" />
    <path
       sodipodi:type="arc"
       style="fill:#87cdde;fill-opacity:1"
       id="path7377"
       sodipodi:cx="203.8793"
       sodipodi:cy="201.29311"
       sodipodi:rx="139.22414"
       sodipodi:ry="139.22414"
       d="m 343.10344,201.29311 c 0,76.89136 -62.33277,139.22413 -139.22414,139.22413 -76.89136,0 -139.224133,-62.33277 -139.224133,-139.22413 0,-76.89137 62.332773,-139.22414 139.224133,-139.22414 76.89137,0 139.22414,62.33277 139.22414,139.22414 z"
       transform="matrix(1.0712073,0,0,1.0804953,-3.7418593,637.88315)" />
    <rect
       style="fill:url(#linearGradient3959);fill-opacity:1"
       id="rect3951"
       width="41.379307"
       height="288.68549"
       x="676.99512"
       y="815.14667"
       transform="matrix(1,0,-0.52506291,0.85106342,0,0)"
       clip-path="url(#clipPath3979)" />
    <rect
       y="806.03027"
       x="724.40887"
       height="288.68549"
       width="17.241375"
       id="rect3961"
       style="fill:url(#linearGradient3963);fill-opacity:1"
       transform="matrix(1,0,-0.52506291,0.85106342,0,0)"
       clip-path="url(#clipPath3975)" />
    <rect
       y="805.0174"
       x="791.65027"
       height="288.68549"
       width="54.310341"
       id="rect3965"
       style="fill:url(#linearGradient3967);fill-opacity:1"
       transform="matrix(1,0,-0.52506291,0.85106342,0,0)"
       clip-path="url(#clipPath3971)" />
  </g>
</svg>
