<?xml version="1.0" encoding="UTF-8" standalone="no"?>
<!-- Created with Inkscape (http://www.inkscape.org/) -->

<svg
   xmlns:dc="http://purl.org/dc/elements/1.1/"
   xmlns:cc="http://creativecommons.org/ns#"
   xmlns:rdf="http://www.w3.org/1999/02/22-rdf-syntax-ns#"
   xmlns:svg="http://www.w3.org/2000/svg"
   xmlns="http://www.w3.org/2000/svg"
   xmlns:sodipodi="http://sodipodi.sourceforge.net/DTD/sodipodi-0.dtd"
   xmlns:inkscape="http://www.inkscape.org/namespaces/inkscape"
   width="349.13791"
   height="361.20688"
   id="svg6857"
   version="1.1"
   inkscape:version="0.48.2 r9819"
   sodipodi:docname="window-barred-circle.svg">
  <defs
     id="defs6859" />
  <sodipodi:namedview
     id="base"
     pagecolor="#82b6ff"
     bordercolor="#666666"
     borderopacity="1.0"
     inkscape:pageopacity="0.97254902"
     inkscape:pageshadow="2"
     inkscape:zoom="1.2845824"
     inkscape:cx="174.56895"
     inkscape:cy="180.60344"
     inkscape:document-units="px"
     inkscape:current-layer="layer1"
     showgrid="false"
     inkscape:showpageshadow="false"
     fit-margin-top="0"
     fit-margin-left="0"
     fit-margin-right="0"
     fit-margin-bottom="0"
     inkscape:window-width="1280"
     inkscape:window-height="682"
     inkscape:window-x="0"
     inkscape:window-y="0"
     inkscape:window-maximized="0" />
  <metadata
     id="metadata6862">
    <rdf:RDF>
      <cc:Work
         rdf:about="">
        <dc:format>image/svg+xml</dc:format>
        <dc:type
           rdf:resource="http://purl.org/dc/dcmitype/StillImage" />
        <dc:title />
      </cc:Work>
    </rdf:RDF>
  </metadata>
  <g
     inkscape:label="Layer 1"
     inkscape:groupmode="layer"
     id="layer1"
     transform="translate(-38.793095,-681.67252)">
    <path
       transform="matrix(1.2074303,0,0,1.2074303,-26.342478,631.72857)"
       d="m 343.10344,201.29311 c 0,76.89136 -62.33277,139.22413 -139.22414,139.22413 -76.89136,0 -139.224133,-62.33277 -139.224133,-139.22413 0,-76.89137 62.332773,-139.22414 139.224133,-139.22414 76.89137,0 139.22414,62.33277 139.22414,139.22414 z"
       sodipodi:ry="139.22414"
       sodipodi:rx="139.22414"
       sodipodi:cy="201.29311"
       sodipodi:cx="203.8793"
       id="path7379"
       style="fill:#000000;fill-opacity:0.25"
       sodipodi:type="arc" />
    <path
       sodipodi:type="arc"
       style="fill:#ffffff;fill-opacity:1"
       id="path6865"
       sodipodi:cx="203.8793"
       sodipodi:cy="201.29311"
       sodipodi:rx="139.22414"
       sodipodi:ry="139.22414"
       d="m 343.10344,201.29311 c 0,76.89136 -62.33277,139.22413 -139.22414,139.22413 -76.89136,0 -139.224133,-62.33277 -139.224133,-139.22413 0,-76.89137 62.332773,-139.22414 139.224133,-139.22414 76.89137,0 139.22414,62.33277 139.22414,139.22414 z"
       transform="matrix(1.2074303,0,0,1.2074303,-39.273512,606.72857)" />
    <path
       transform="matrix(1.114551,0,0,1.114551,-18.613216,626.28659)"
       d="m 343.10344,201.29311 c 0,76.89136 -62.33277,139.22413 -139.22414,139.22413 -76.89136,0 -139.224133,-62.33277 -139.224133,-139.22413 0,-76.89137 62.332773,-139.22414 139.224133,-139.22414 76.89137,0 139.22414,62.33277 139.22414,139.22414 z"
       sodipodi:ry="139.22414"
       sodipodi:rx="139.22414"
       sodipodi:cy="201.29311"
       sodipodi:cx="203.8793"
       id="path7375"
       style="fill:#5fbcd3;fill-opacity:1"
       sodipodi:type="arc" />
    <path
       sodipodi:type="arc"
       style="fill:#87cdde;fill-opacity:1"
       id="path7377"
       sodipodi:cx="203.8793"
       sodipodi:cy="201.29311"
       sodipodi:rx="139.22414"
       sodipodi:ry="139.22414"
       d="m 343.10344,201.29311 c 0,76.89136 -62.33277,139.22413 -139.22414,139.22413 -76.89136,0 -139.224133,-62.33277 -139.224133,-139.22413 0,-76.89137 62.332773,-139.22414 139.224133,-139.22414 76.89137,0 139.22414,62.33277 139.22414,139.22414 z"
       transform="matrix(1.0712073,0,0,1.0804953,-3.7418593,637.88315)" />
    <path
       style="fill:#5fbcd3;fill-opacity:1"
       d="m 204.11431,696.29888 22.21918,0.97308 2.33538,308.12324 -21.05147,0.5839 z"
       id="rect4619"
       inkscape:connector-curvature="0"
       sodipodi:nodetypes="ccccc" />
    <rect
       style="fill:#b3b3b3;fill-opacity:1"
       id="rect4584"
       width="22.413792"
       height="321.55173"
       x="198.27585"
       y="692.01733" />
    <path
       style="fill:#5fbcd3;fill-opacity:1"
       d="m 264.06992,700.638 21.82994,17.51542 1.1677,269.36173 -22.99764,12.26079 z"
       id="rect4621"
       inkscape:connector-curvature="0"
       sodipodi:nodetypes="ccccc" />
    <path
       style="fill:#b3b3b3;fill-opacity:1"
       d="m 258.62067,696.74568 22.41379,10.12002 0,287.461 -23.19225,9.3416 z"
       id="rect4586"
       inkscape:connector-curvature="0"
       sodipodi:nodetypes="ccccc" />
    <path
       sodipodi:nodetypes="ccccc"
       inkscape:connector-curvature="0"
       id="path4623"
       d="m 319.43999,744.90781 21.75277,26.94931 1.44675,161.67069 -14.38309,23.44622 z"
       style="fill:#5fbcd3;fill-opacity:1" />
    <path
       style="fill:#b3b3b3;fill-opacity:1"
       d="m 317.49384,737.70703 18.24968,17.60775 2.0306,193.19844 -21.19464,17.60775 z"
       id="rect4588"
       inkscape:connector-curvature="0"
       sodipodi:nodetypes="ccccc" />
    <path
       style="fill:#5fbcd3;fill-opacity:1"
       d="m 143.57487,708.89546 22.99764,-4.28155 2.14077,295.69109 -24.16533,-9.34159 z"
       id="rect4617"
       inkscape:connector-curvature="0"
       sodipodi:nodetypes="ccccc" />
    <path
       style="fill:#b3b3b3;fill-opacity:1"
       d="m 137.93102,706.17084 22.41379,-8.5631 0,305.61646 -22.41379,-7.78463 z"
       id="rect4590"
       inkscape:connector-curvature="0"
       sodipodi:nodetypes="ccccc" />
    <path
       sodipodi:nodetypes="ccccc"
       inkscape:connector-curvature="0"
       id="path4615"
       d="m 91.541197,740.77285 21.499433,-5.20804 0,233.23424 -18.756346,-11.86278 z"
       style="fill:#5fbcd3;fill-opacity:1" />
    <path
       style="fill:#b3b3b3;fill-opacity:1"
       d="m 86.870418,742.6079 17.607112,-10.15695 1.55693,244.91119 -17.977881,-16.3886 z"
       id="rect4592"
       inkscape:connector-curvature="0"
       sodipodi:nodetypes="ccccc" />
    <path
       sodipodi:nodetypes="ccccc"
       inkscape:connector-curvature="0"
       id="path4628"
       d="m 89.205808,754.99002 3.59478,-4.63442 0,207.54496 -3.136126,-10.55616 z"
       style="fill:#cccccc;fill-opacity:1" />
    <path
       style="fill:#cccccc;fill-opacity:1"
       d="m 141.04486,710.06317 3.73068,-3.02751 -0.075,286.02537 -3.65567,-2.33944 z"
       id="rect4630"
       inkscape:connector-curvature="0"
       sodipodi:nodetypes="ccccc" />
    <rect
       y="695.90967"
       x="200.61124"
       height="309.09634"
       width="4.50914"
       id="rect4632"
       style="fill:#cccccc;fill-opacity:1" />
    <path
       style="fill:#cccccc;fill-opacity:1"
       d="m 261.73453,704.53033 3.73068,2.33944 0,289.0139 -3.64605,1.78898 z"
       id="rect4634"
       inkscape:connector-curvature="0"
       sodipodi:nodetypes="ccccc" />
    <path
       sodipodi:nodetypes="ccccc"
       inkscape:connector-curvature="0"
       id="path4636"
       d="m 319.87932,743.15627 4.18726,13.20124 -0.062,193.44836 -4.31125,13.20125 z"
       style="fill:#cccccc;fill-opacity:1" />
  </g>
</svg>
